<?xml version="1.0" encoding="utf-8"?>
<!-- Generator: Adobe Illustrator 21.0.0, SVG Export Plug-In . SVG Version: 6.00 Build 0)  -->
<svg version="1.2" baseProfile="tiny" id="Layer_1" xmlns="http://www.w3.org/2000/svg" xmlns:xlink="http://www.w3.org/1999/xlink"
	 x="0px" y="0px" viewBox="0 0 500 500" overflow="scroll" xml:space="preserve">
	  <style>
            .hi {
                fill: none;
                stroke: #000;
                stroke-dasharray: 100;
                stroke-width: 2.5;
                animation: my_animation 3s infinite;
            }
            
            @keyframes my_animation{
                0%{
                    stroke-dashoffset: 0;
                }
                50%{
                    stroke-dashoffset: 200;
                }
                100%{
                    stroke-dashoffset: 0;
                }
            }
        </style>

<path class="hi" d="M355.8,91.7v222.4H133.6V91.7H355.8 M361.1,86.4H128.3v232.9h232.9V86.4H361.1z"/>
<path class="hi" d="M338.7,108.9v188h-188v-188H338.7 M343.9,103.7H145.4v198.5h198.5V103.7L343.9,103.7z"/>
<g>
	<path stroke="#000000" stroke-width="1.7459" d="M203.7,218.2c0,2.3-0.5,4.5-1.4,6.6c-0.9,2.1-2.1,3.8-3.7,5.4
		c-1.6,1.6-3.3,2.8-5.4,3.7s-4.2,1.4-6.6,1.4h-16.9c-0.3,0-0.7-0.2-0.9-0.5c-0.2-0.3-0.3-0.7-0.3-1v-57.1h-5.1v57.4
		c0,0.3-0.2,0.7-0.3,0.9c-0.3,0.2-0.5,0.3-0.9,0.3c-0.3,0-0.5-0.2-0.9-0.3s-0.3-0.5-0.3-0.9v-58.7c0-0.7,0.3-1.2,1.2-1.2h23.2
		c2.1,0,4,0.3,5.8,1.2c1.7,0.7,3.3,1.7,4.7,3.1s2.4,3,3.1,4.7c0.9,1.7,1.2,3.7,1.2,5.8c0,2.8-0.7,5.4-2.1,7.7s-3.5,4.2-6.1,5.4
		c1.7,0.5,3.3,1.4,4.7,2.4s2.8,2.3,3.7,3.7c1,1.4,1.7,3,2.4,4.7C203.4,214.7,203.7,216.5,203.7,218.2z M197.8,189.1
		c0-1.7-0.3-3.3-1-4.9c-0.7-1.6-1.6-2.8-2.6-3.8s-2.4-1.9-3.8-2.6c-1.6-0.7-3.1-1-4.9-1h-14.3v24.6h14.3c1.7,0,3.3-0.3,4.7-1
		c1.6-0.7,2.8-1.6,4-2.6c1-1,1.9-2.4,2.6-3.8C197.5,192.2,197.8,190.7,197.8,189.1z M201.5,218.2c0-1.9-0.3-3.8-1.2-5.6
		c-0.7-1.7-1.7-3.3-3.1-4.7s-2.8-2.4-4.7-3.1c-1.7-0.7-3.5-1-5.6-1c-0.2,0-0.3,0-0.3,0h-15.5v29.3h15.9c2.1,0,3.8-0.3,5.8-1.2
		c1.7-0.7,3.3-1.7,4.5-3.1c1.4-1.4,2.4-2.8,3.1-4.7C201,222.3,201.5,220.3,201.5,218.2z"/>
	<path stroke="#000000" stroke-width="1.7459" d="M276.4,204.8c0,4.2-0.9,8.2-2.4,11.9c-1.6,3.7-3.8,7-6.5,9.6
		c-2.8,2.8-5.9,4.9-9.6,6.5c-3.7,1.6-7.7,2.4-11.9,2.4s-8.2-0.9-11.9-2.4c-3.7-1.6-7-3.8-9.6-6.5c-2.8-2.8-4.9-5.9-6.5-9.6
		c-1.6-3.7-2.4-7.7-2.4-11.9c0-4.2,0.9-8.2,2.4-11.9s3.8-7,6.5-9.6s5.9-4.9,9.6-6.5c3.7-1.6,7.7-2.4,11.9-2.4s8.2,0.9,11.9,2.4
		c3.7,1.6,7,3.8,9.6,6.5s4.9,5.9,6.5,9.6C275.7,196.6,276.4,200.6,276.4,204.8z M274.1,204.8c0-3.8-0.7-7.5-2.3-10.8
		c-1.4-3.3-3.5-6.5-6.1-8.9c-2.6-2.6-5.6-4.5-8.9-6.1c-3.3-1.4-7-2.3-10.8-2.3s-7.5,0.7-10.8,2.3c-3.3,1.4-6.5,3.5-8.9,6.1
		c-2.6,2.6-4.5,5.6-6.1,8.9c-1.4,3.3-2.3,7-2.3,10.8c0,3.8,0.7,7.5,2.3,10.8c1.4,3.3,3.5,6.5,6.1,8.9c2.6,2.6,5.6,4.5,8.9,6.1
		c3.3,1.4,7,2.3,10.8,2.3s7.5-0.7,10.8-2.3c3.3-1.4,6.5-3.5,8.9-6.1c2.6-2.6,4.5-5.6,6.1-8.9C273.4,212.3,274.1,208.6,274.1,204.8z"
		/>
	<path stroke="#000000" stroke-width="1.7459" d="M322.5,234.1c0,0.3-0.2,0.7-0.3,0.9c-0.2,0.2-0.5,0.3-0.9,0.3
		c-0.3,0-0.7-0.2-0.9-0.5L301.7,209l-18.5,25.8c-0.2,0.3-0.5,0.5-0.9,0.5s-0.5-0.2-0.9-0.3c-0.2-0.2-0.3-0.5-0.3-0.9
		c0-0.2,0.3-0.9,1.2-2.1c0.9-1.2,1.9-2.8,3.3-4.7c1.4-1.9,2.8-3.8,4.4-6.1c1.6-2.1,3.1-4.2,4.5-6.1c1.4-1.9,2.6-3.7,3.7-5.1
		c1-1.4,1.7-2.4,2.1-2.8c-0.3-0.5-1.2-1.6-2.4-3.1c-1.2-1.7-2.6-3.7-4.4-5.9c-1.6-2.3-3.3-4.7-5.2-7.2s-3.5-4.9-5.1-7.2
		c-1.6-2.3-2.8-4-3.8-5.4c-1-1.4-1.6-2.3-1.6-2.4c0-0.3,0.2-0.5,0.3-0.9c0.2-0.3,0.5-0.3,0.9-0.3c0.3,0,0.7,0.2,0.9,0.5
		c0.3,0.5,1.4,1.9,2.8,3.8c1.4,1.9,3.1,4.4,5.2,7.3c2.1,2.8,4.4,5.9,6.8,9.4c2.4,3.5,5.1,7,7.5,10.5c2.6,3.5,5.1,7,7.3,10.3
		c2.4,3.3,4.5,6.3,6.3,8.9c1.9,2.6,3.3,4.7,4.5,6.3C321.9,233.1,322.5,234,322.5,234.1z M331.7,234.1c0,0.3-0.2,0.5-0.3,0.7
		c-0.3,0.2-0.5,0.3-0.9,0.3c-0.5,0-0.9-0.2-1-0.5c-0.3-0.7-1.4-1.9-2.8-4c-1.4-1.9-3.1-4.4-5.2-7.3c-2.1-2.8-4.4-5.9-6.8-9.4
		c-2.4-3.3-5.1-6.8-7.5-10.3c-2.6-3.5-5.1-7-7.3-10.1c-2.4-3.3-4.5-6.3-6.3-8.9c-1.9-2.6-3.3-4.7-4.5-6.3c-1-1.6-1.7-2.6-1.7-2.6
		c0-0.3,0.2-0.7,0.3-0.9c0.3-0.2,0.5-0.3,0.9-0.3s0.5,0.2,0.9,0.5l16.9,23.6l16.9-23.7c0.2-0.3,0.5-0.5,0.9-0.5s0.5,0.2,0.9,0.3
		c0.2,0.2,0.3,0.5,0.3,0.9c0,0.2-0.3,0.9-1.2,2.1c-0.9,1.2-1.7,2.6-3,4.4c-1.2,1.7-2.6,3.7-4,5.6s-2.8,3.8-4.2,5.8
		c-1.4,1.7-2.4,3.3-3.5,4.7c-1,1.4-1.6,2.3-1.9,2.6l23.6,32.8C331.5,233.6,331.7,234,331.7,234.1z"/>
</g>
<g>
	<path d="M68.9,407.1c0,0.4-0.1,0.7-0.4,1s-0.6,0.4-1,0.4c-0.8,0-1.3-0.3-1.5-1L38,337.2l-3.2,8.1c0.2,0.5,0.8,1.8,1.6,3.8
		c0.8,2.1,1.9,4.6,3.1,7.5c1.2,3,2.5,6.3,3.9,9.9c1.4,3.6,2.9,7.3,4.3,11c1.5,3.7,2.9,7.3,4.2,10.9c1.4,3.5,2.6,6.7,3.6,9.4
		c1,2.7,1.9,5,2.5,6.7c0.7,1.7,1,2.5,1,2.6c0,0.7-0.3,1.2-1,1.3c-0.1,0-0.2,0-0.3,0.1c-0.1,0.1-0.2,0.1-0.3,0.1
		c-0.7,0-1.1-0.3-1.3-1l-23-58.1L11,407.6c-0.2,0.7-0.7,1-1.5,1c-0.1,0-0.2,0-0.2-0.1c-0.1-0.1-0.1-0.1-0.2-0.1
		c-0.7-0.2-1-0.7-1-1.5c0-0.1,0.4-1.1,1.2-3.2c0.8-2.1,1.8-4.7,3-8s2.7-7,4.3-11.2c1.6-4.2,3.3-8.6,5-13c1.7-4.4,3.4-8.9,5.1-13.2
		c1.7-4.4,3.2-8.3,4.6-12c1.4-3.6,2.5-6.7,3.5-9.1c1-2.5,1.6-4.1,1.8-4.7c0.2-0.5,0.7-0.8,1.5-0.8c0.7,0,1.2,0.3,1.3,0.8
		c0.2,0.7,0.8,2.3,1.9,4.7c1,2.5,2.2,5.5,3.6,9.1c1.4,3.6,3,7.6,4.7,12c1.8,4.4,3.5,8.7,5.3,13.2c1.8,4.4,3.5,8.8,5.2,13
		c1.7,4.2,3.2,8,4.4,11.3c1.3,3.3,2.3,5.9,3.1,8C68.5,406,68.9,407.1,68.9,407.1z"/>
	<path d="M148.7,370.1c0,5.3-1,10.3-3,14.9c-2,4.6-4.7,8.7-8.2,12.1c-3.5,3.5-7.5,6.2-12.2,8.1c-4.7,2-9.7,3-14.9,3.1l-12.6,0.1
		c-0.4,0-0.8-0.2-1.1-0.5c-0.3-0.3-0.4-0.7-0.4-1.2v-72.1h-6.6V407c0,1-0.5,1.5-1.5,1.5c-0.4,0-0.8-0.2-1-0.5
		c-0.2-0.3-0.4-0.7-0.4-1v-73.6c0-0.4,0.1-0.8,0.4-1.2s0.7-0.5,1.1-0.5h22.2c5.2,0,10.2,1,14.9,3c4.7,2,8.7,4.7,12.2,8.2
		c3.5,3.5,6.2,7.5,8.2,12.2C147.8,359.9,148.7,364.8,148.7,370.1z M145.8,370.1c0-4.9-0.9-9.5-2.8-13.8c-1.9-4.3-4.4-8.1-7.5-11.2
		c-3.2-3.2-6.9-5.7-11.2-7.5c-4.3-1.9-8.9-2.8-13.8-2.8c-1.9,0-3.7,0-5.6,0.1c-1.9,0.1-3.7,0.1-5.6,0.1v70.6c1.9,0,3.7,0,5.6,0
		s3.7-0.1,5.6-0.1c4.9-0.1,9.4-1,13.7-2.9c4.3-1.9,8-4.4,11.2-7.5c3.2-3.2,5.7-6.9,7.6-11.2C144.8,379.5,145.8,374.9,145.8,370.1z"
		/>
	<path d="M231.6,370.1c0,5.3-1,10.3-3,14.9c-2,4.6-4.7,8.7-8.2,12.1c-3.5,3.5-7.5,6.2-12.2,8.1c-4.7,2-9.7,3-14.9,3.1l-12.6,0.1
		c-0.4,0-0.8-0.2-1.1-0.5c-0.3-0.3-0.4-0.7-0.4-1.2v-72.1h-6.6V407c0,1-0.5,1.5-1.5,1.5c-0.4,0-0.8-0.2-1-0.5
		c-0.2-0.3-0.4-0.7-0.4-1v-73.6c0-0.4,0.1-0.8,0.4-1.2s0.7-0.5,1.1-0.5h22.2c5.2,0,10.2,1,14.9,3c4.7,2,8.7,4.7,12.2,8.2
		c3.5,3.5,6.2,7.5,8.2,12.2C230.6,359.9,231.6,364.8,231.6,370.1z M228.7,370.1c0-4.9-0.9-9.5-2.8-13.8c-1.9-4.3-4.4-8.1-7.5-11.2
		c-3.2-3.2-6.9-5.7-11.2-7.5c-4.3-1.9-8.9-2.8-13.8-2.8c-1.9,0-3.7,0-5.6,0.1c-1.9,0.1-3.7,0.1-5.6,0.1v70.6c1.9,0,3.7,0,5.6,0
		s3.7-0.1,5.6-0.1c4.9-0.1,9.4-1,13.7-2.9c4.3-1.9,8-4.4,11.2-7.5c3.2-3.2,5.7-6.9,7.6-11.2C227.7,379.5,228.7,374.9,228.7,370.1z"
		/>
	<path d="M297.3,348.9c0,2.2-0.4,4.4-1.2,6.4c-0.8,2-1.8,3.8-3.2,5.3c-1.3,1.5-3,2.8-4.9,3.8s-3.9,1.7-6.2,2c-0.3,0.1-0.7,0.1-1,0.1
		c-0.4,0-0.7,0-1,0h-16.7l-0.1,6.4h17.5c0.5,0,1,0.3,1.3,0.8c0.2,0.5,0.7,1.6,1.5,3.5c0.8,1.8,1.8,3.9,2.9,6.3
		c1.1,2.4,2.3,5,3.5,7.6c1.3,2.7,2.4,5.2,3.5,7.5c1,2.3,1.9,4.2,2.6,5.8c0.7,1.6,1,2.4,1,2.6c0,0.4-0.2,0.8-0.5,1s-0.7,0.4-1,0.4
		c-0.7,0-1.1-0.3-1.3-0.8L279.6,376h-16.9v30.7c0,0.4-0.2,0.8-0.5,1s-0.7,0.4-1,0.4c-0.4,0-0.7-0.1-1-0.4c-0.3-0.3-0.4-0.6-0.4-1
		v-71.9h-6.3v72.3c0,0.4-0.2,0.8-0.5,1c-0.3,0.2-0.7,0.4-1,0.4c-0.4,0-0.7-0.1-1-0.4c-0.3-0.3-0.4-0.6-0.4-1v-73.7
		c0-1,0.5-1.5,1.5-1.5h27.8c2.4,0,4.7,0.4,6.8,1.3c2.1,0.8,3.9,2.1,5.5,3.6s2.8,3.3,3.7,5.4C296.8,344.2,297.3,346.4,297.3,348.9z
		 M294.3,348.9c0-2-0.4-3.8-1.2-5.5c-0.8-1.7-1.8-3.2-3.1-4.5c-1.3-1.3-2.9-2.3-4.6-3s-3.6-1.1-5.6-1.1h-17.1v28.8h17.1
		c2,0,3.8-0.4,5.6-1.2c1.8-0.8,3.3-1.8,4.6-3.2c1.3-1.3,2.3-2.9,3.1-4.6C294,352.9,294.3,351,294.3,348.9z"/>
	<path d="M367.4,406.9c0,0.4-0.1,0.7-0.4,1.1c-0.2,0.4-0.6,0.5-1,0.5h-47c-0.5,0-0.8-0.2-1.2-0.5c-0.3-0.3-0.4-0.7-0.4-1.2v-73.6
		c0-0.4,0.2-0.8,0.5-1s0.7-0.4,1.1-0.4h47c0.4,0,0.7,0.1,1,0.4c0.3,0.3,0.4,0.7,0.4,1c0,0.4-0.1,0.7-0.4,1c-0.3,0.3-0.6,0.4-1,0.4
		h-45.6v29.6h35.5c0.4,0,0.7,0.1,1,0.4c0.3,0.3,0.4,0.7,0.4,1c0,0.4-0.1,0.7-0.4,1c-0.3,0.3-0.6,0.4-1,0.4h-35.4l-0.1,6.6h35.9
		c1,0,1.5,0.5,1.5,1.5c0,0.4-0.2,0.7-0.5,1c-0.3,0.3-0.7,0.5-1,0.5h-36v28.3h45.6c0.4,0,0.7,0.2,1,0.5
		C367.2,406.2,367.4,406.5,367.4,406.9z"/>
	<path d="M423.8,387.9c0,3.5-0.7,6.5-2.2,9.1s-3.5,4.7-5.9,6.4c-2.5,1.7-5.2,3-8.3,3.8c-3,0.8-6.1,1.3-9.2,1.3
		c-5.4,0-10.6-1-15.4-3.2c-4.9-2.1-9.2-5-13-8.6c-0.4-0.4-0.5-0.7-0.5-1c0-0.4,0.2-0.7,0.5-1.1s0.7-0.5,1.2-0.5c0.3,0,0.7,0.2,1,0.5
		c3.9,3.3,8.1,6,12.3,8c4.2,2,9,3,14.3,3c2.7,0,5.3-0.4,8-1.1s5-1.9,7.2-3.3c2.1-1.5,3.9-3.4,5.2-5.6c1.3-2.2,1.9-4.9,1.9-7.9
		c0-2.4-0.5-4.6-1.7-6.3c-1.2-1.8-2.7-3.3-4.5-4.5c-1.9-1.3-4-2.3-6.4-3.1c-2.4-0.8-4.8-1.6-7.2-2.2c-2.4-0.6-4.8-1.2-7.2-1.6
		c-2.3-0.4-4.4-0.9-6.1-1.3c-2.1-0.5-4.1-1.3-6.1-2.4c-1.9-1-3.6-2.2-5.2-3.7c-1.5-1.5-2.6-3.2-3.5-5.2c-0.8-1.9-1.3-4.1-1.3-6.6
		c0-3.3,0.7-6.1,2.2-8.5c1.5-2.4,3.5-4.4,5.8-5.9c2.4-1.6,5-2.7,8-3.5s5.8-1.2,8.6-1.2c1.8,0,3.8,0.2,6.1,0.5
		c2.2,0.4,4.6,0.9,6.8,1.6c2.2,0.7,4.4,1.6,6.4,2.6c2,1,3.6,2.2,5,3.5c0.2,0.2,0.4,0.4,0.4,0.5c0.1,0.1,0.1,0.4,0.1,0.7
		c0,0.4-0.2,0.7-0.5,1c-0.3,0.3-0.7,0.5-1,0.5c-0.1,0-0.4-0.1-0.7-0.3c-0.4-0.2-0.7-0.4-1.2-0.7c-0.4-0.3-0.8-0.5-1.2-0.8
		c-0.4-0.2-0.6-0.4-0.8-0.5c-2.9-1.7-5.9-3.1-9.2-4.1c-3.3-1-6.6-1.5-10.1-1.5c-2.4,0-4.9,0.3-7.5,0.9c-2.5,0.6-4.9,1.6-7,2.9
		c-2.1,1.3-3.9,2.9-5.3,4.9s-2.1,4.4-2.1,7.2c0,3.1,0.7,5.6,2.1,7.5c1.4,1.9,3.3,3.6,5.5,4.8c2.3,1.3,4.9,2.2,7.8,3s5.9,1.5,9,2.2
		c3.1,0.7,6.1,1.5,9,2.3c2.9,0.8,5.5,1.9,7.8,3.4c2.3,1.5,4.1,3.3,5.5,5.5C422.8,381.5,423.8,384.4,423.8,387.9z"/>
	<path d="M492.9,387.9c0,3.5-0.7,6.5-2.2,9.1s-3.5,4.7-5.9,6.4c-2.5,1.7-5.2,3-8.3,3.8c-3,0.8-6.1,1.3-9.2,1.3
		c-5.4,0-10.6-1-15.4-3.2c-4.9-2.1-9.2-5-13-8.6c-0.4-0.4-0.5-0.7-0.5-1c0-0.4,0.2-0.7,0.5-1.1s0.7-0.5,1.2-0.5c0.3,0,0.7,0.2,1,0.5
		c3.9,3.3,8.1,6,12.3,8c4.2,2,9,3,14.3,3c2.7,0,5.3-0.4,8-1.1s5-1.9,7.2-3.3c2.1-1.5,3.9-3.4,5.2-5.6c1.3-2.2,1.9-4.9,1.9-7.9
		c0-2.4-0.5-4.6-1.7-6.3c-1.2-1.8-2.7-3.3-4.5-4.5c-1.9-1.3-4-2.3-6.4-3.1c-2.4-0.8-4.8-1.6-7.2-2.2c-2.4-0.6-4.8-1.2-7.2-1.6
		c-2.3-0.4-4.4-0.9-6.1-1.3c-2.1-0.5-4.1-1.3-6.1-2.4c-1.9-1-3.6-2.2-5.2-3.7c-1.5-1.5-2.6-3.2-3.5-5.2c-0.8-1.9-1.3-4.1-1.3-6.6
		c0-3.3,0.7-6.1,2.2-8.5c1.5-2.4,3.5-4.4,5.8-5.9c2.4-1.6,5-2.7,8-3.5c2.9-0.8,5.8-1.2,8.6-1.2c1.8,0,3.8,0.2,6.1,0.5
		c2.2,0.4,4.6,0.9,6.8,1.6c2.2,0.7,4.4,1.6,6.4,2.6c2,1,3.6,2.2,5,3.5c0.2,0.2,0.4,0.4,0.4,0.5c0.1,0.1,0.1,0.4,0.1,0.7
		c0,0.4-0.2,0.7-0.5,1c-0.3,0.3-0.7,0.5-1,0.5c-0.1,0-0.4-0.1-0.7-0.3c-0.4-0.2-0.7-0.4-1.2-0.7c-0.4-0.3-0.8-0.5-1.2-0.8
		c-0.4-0.2-0.6-0.4-0.8-0.5c-2.9-1.7-5.9-3.1-9.2-4.1c-3.3-1-6.6-1.5-10.1-1.5c-2.4,0-4.9,0.3-7.5,0.9c-2.5,0.6-4.9,1.6-7,2.9
		c-2.1,1.3-3.9,2.9-5.3,4.9s-2.1,4.4-2.1,7.2c0,3.1,0.7,5.6,2.1,7.5c1.4,1.9,3.3,3.6,5.5,4.8c2.3,1.3,4.9,2.2,7.8,3
		c2.9,0.8,5.9,1.5,9,2.2c3.1,0.7,6.1,1.5,9,2.3c2.9,0.8,5.5,1.9,7.8,3.4c2.3,1.5,4.1,3.3,5.5,5.5
		C491.9,381.5,492.9,384.4,492.9,387.9z"/>
</g>
</svg>
