<?xml version="1.0" encoding="utf-8"?>
<!-- Generator: Adobe Illustrator 21.0.0, SVG Export Plug-In . SVG Version: 6.00 Build 0)  -->
<svg version="1.2" baseProfile="tiny" id="Layer_1" xmlns="http://www.w3.org/2000/svg" xmlns:xlink="http://www.w3.org/1999/xlink"
	 x="0px" y="0px" viewBox="0 0 1000 300" overflow="scroll" xml:space="preserve">
<g>
	<g>
		<path fill="#5F5F60" d="M280.6,265.8c-11.2,5.8-22.7,6.3-32.2-1.6c-9.1-7.6-14.5-17.9-9.5-30.9c-12.3-1.3-20.2-9.5-23.2-20
			c-2.9-10.5-1.7-21.9,8.7-28.9c-2.4-4-4.7-7.3-6.4-11c-5.4-11.1-4.3-21.9,2.1-32.3c1.1-1.7,2.8-3.1,3.8-4.9
			c0.7-1.3,1.3-3.2,0.9-4.4c-4-10.9,0.7-25.3,11.2-32.1c-5.6-11.5-4.3-26.3,6.1-33.6c6-4.2,8.5-9,10.5-15.8
			c4.6-15,18.3-21.9,33.9-18.3c4.4,1,4.8-2.6,5.8-4.4c5.2-9.2,12.9-13.8,23.3-14.1c7.7-0.2,14.9,0.1,21.4,5.6
			c3.7,3.2,3.2,6.3,1.2,8.6c-1.1,1.3-5.9,1.2-7.5-0.2c-5.9-5-12.3-6.2-19-3.5c-6.5,2.7-11.2,7.8-12.6,14.9
			c-1.5,7.4-5.6,9.3-11.9,4.9c-6-4.2-11.3-4.1-16.8,0.1c-6.2,4.8-10.3,10.2-8.3,18.8c0.8,3.5-1.3,5.7-5,6.4
			c-11.3,2-18.7,17.2-9.9,28.5c2.8,3.6,1.7,6.8-2.2,9.2c-11,6.7-14.1,15.8-7.7,26c1.8,2.8,1.1,5.2-1.5,7.3c-5.2,4.3-9.3,9-10.6,16.2
			c-1.2,7.2,1.5,12.6,5.3,17.9c1.5,2.1,3.9,3.6,6.1,5.2c4.9,3.8,4.9,6.6-0.9,9.3c-6.2,2.9-9,7.7-10.4,14c-2.1,9.2,5,19.1,14.5,19.6
			c2.1,0.1,4.3-0.3,6.3,0.1c2.2,0.4,5.5,1.1,6.1,2.5c0.8,1.9,0.1,5.2-1.2,7c-7.1,10.5-1.5,21.4,6.4,25.1c7.4,3.5,14.7,2.2,21.8-3.8
			c1.7-1.4,4.9-2.7,6.7-2.1c1.7,0.6,3.2,3.7,3.6,5.8c2.3,13.1,12.5,21.2,27.5,19.6c12.1-1.2,20-8.3,21.3-21.8c0.2-2-0.4-4-0.4-6
			c0-68,0-136.1,0-204.1c0-11.1,9.2-28,21.9-30.4c13.3-2.6,26.7-1.9,35.4,13.8c1.4,2.6,2.7,4.2,7.1,3.5c19.1-2.8,31.5,7.2,34.4,26.1
			c0.2,1.5,1.5,3.6,2.8,4.2c14.5,6.5,18.6,24.3,11.9,37.8c10.5,6.9,15.1,21.3,11.2,32.1c-0.5,1.3,0.2,3.6,1.2,4.7
			c9.1,10.1,11.5,24.8,5.5,36.8c-1.7,3.5-3.9,6.7-6.2,10.8c9.8,7,11.6,18.4,8.5,29.1c-3,10.3-10.7,18.6-23.1,20
			c4.9,12.9-0.5,23.4-9.8,31c-9.5,7.8-21,7.4-31.9,1.4c-5.6,9.3-11.7,18.3-23.3,20.7c-10.7,2.2-21.2,2-30.6-4.8
			c-2.7-1.9-4.9-4.5-2.7-7.9c2-3.1,4.8-3.5,8.3-1.4c10.3,6.2,20.6,6.4,30.8-0.7c5.2-3.6,7.2-8.8,8.5-14.6c0.5-2.2,1.7-5.9,2.8-5.9
			c2.5-0.2,5.8,0.7,7.7,2.4c11.6,10.4,28.3,4.8,30.5-7.9c0.6-3.6-0.7-7.5-1.3-11.2c-0.2-1.1-1.6-2-1.8-3.1c-0.5-2.2-1.3-4.8-0.5-6.7
			c0.5-1.2,3.3-1.8,5.2-2.2c4.5-0.9,9.2-1.1,13.5-2.5c7.5-2.4,10.7-14.8,6.5-22.4c-2.2-4-5-6.8-9.3-8.9c-5.4-2.6-5.4-5.6-0.7-9.1
			c6.3-4.7,11.6-10.4,11.8-18.5c0.1-4.4-1.4-9.1-3.4-13.1c-1.6-3.2-5.4-5.2-7.6-8.2c-1.2-1.7-2.2-5.2-1.3-6.7
			c6.3-10.3,3.1-19.9-8.1-26.5c-4.9-2.9-5.2-4.5-1.7-9.2c8-10.8,2.1-24.9-9.3-28.2c-6-1.7-6.4-2.4-5.3-8.7c0.3-2.1-0.2-4.3-0.6-6.5
			c-1.9-10.5-16.2-16.4-24.7-10.2c-6.3,4.6-10.3,2.6-12.1-5.1c-1.8-7.5-6.8-13-14.1-15.5c-6.8-2.2-15.8,1.3-20,7.3
			c-3.7,5.3-5.8,10.9-5.7,17.7c0.2,69.2,0,138.5,0.2,207.8c0,14.4-15,32.5-31.6,31.3c-5.8-0.4-11.8-0.7-17.2-2.4
			C290.3,281.9,285.4,273.9,280.6,265.8z"/>
		<path fill="#134998" d="M299.3,208.8c5.3-1.5,7.5-4.1,7.3-9.7c-0.5-14.8-0.3-29.7-0.1-44.6c0-3-1-4.8-3.3-6.2
			c-0.7-0.4-2-0.7-2.1-1.3c-2-7.1-7.6-5.5-12.6-5.4c-4.6,10.1-16.4,12.7-24.5,5.2c-5.8-5.3-4.5-17.5,2.8-22.6c2.5-1.7,3-3.3,2.9-5.9
			c-0.1-8.6,0-17.1,0-25.7c0-6.2,0.6-6.8,7-6.8c2.8,0,5.6,0,8.4,0c11.8,0,11.9,0,20.3-7.4c0.7-0.6,1-2,1-3.1c0.1-3.7,0.1-7.3,0-11
			c-0.1-3.7,1.3-7.1,5.2-6.5c2.1,0.4,4.7,3.9,5.1,6.3c0.8,4.4,0.2,9,0.2,13.5c9.1,4.3,11.8,13.7,6.8,21.1
			c-5.6,8.3-18.9,7.9-23.8,0.8c-1.8-2.6-3.5-3.3-6.3-3.2c-4.2,0.1-8.4,0-13,0c0,8.9,0,17.7,0,25.8c3,3.1,5.7,6,8.6,9.1
			c2.4,0,5.4,0,9,0c2.7-3.3,4.3-8.5,10.7-9c5.9-0.5,12,1.5,15.2,7.2c3.4,6,2.9,12.5-1.9,16.2c-5,3.9-5.5,8.3-5.4,13.8
			c0.2,13.6,0.1,27.3,0,40.9c0,2.6,0.4,4.4,2.8,6.5c5.7,4.9,9.2,12.2,3.6,20.3c-0.3,0.4-0.3,1.2-0.7,1.3c-8,3.3-5.1,10.3-5.8,16.2
			c-0.3,2.2-1.5,5-3.2,6.2c-3.1,2.1-7-0.5-7.2-4.3c-0.1-2.3-0.1-4.5,0-6.8c0.2-4-0.1-7.1-4.1-10.2c-3.7-2.8-5.3-8.1-8.4-11.9
			c-2.9-3.6-6.4-6.6-9.7-9.8c-2-2-3.5-3.6-7.3-2.8c-7.6,1.6-14.6-3.1-16.6-9.8c-2-6.8,2.3-13,9.5-17.5c6.8-4.3,10.6,0.7,14.6,3.3
			c4,2.6,6.1,7.1,4.3,12.5c-0.5,1.5,0.5,4.1,1.7,5.5C293.2,202.8,296.4,205.8,299.3,208.8z M316.8,90.9c-2.2-1.7-3.8-3.8-5.1-3.6
			c-1.5,0.1-4.1,2.5-3.9,3.4c0.3,1.7,2.2,4.1,3.7,4.4C312.7,95.3,314.5,92.8,316.8,90.9z M275.3,197.7c1.7-3.1,3.3-4.9,3.5-6.9
			c0.1-0.8-2.8-3-4-2.8c-1.5,0.3-3.8,2.5-3.7,3.7C271.2,193.4,273.2,194.9,275.3,197.7z M274.4,131.9c-1.5,2.2-3.6,4-3.3,5.1
			c0.4,1.4,2.9,3.3,4.3,3.1c1.4-0.2,3.1-2.5,3.5-4.1C278.9,135.2,276.4,133.8,274.4,131.9z M311.2,131.9c-1.6,2.1-3.7,3.9-3.5,5
			c0.4,1.4,2.8,3.3,4.2,3.2c1.4-0.2,3.2-2.4,3.5-4C315.7,135.3,313.2,133.8,311.2,131.9z M310.9,223c0.8,0.4,1.7,0.8,2.5,1.1
			c0.8-1.7,2.4-3.5,2.1-4.9c-0.3-1.6-2.3-3.7-3.7-3.8c-1.4-0.1-3.8,1.9-4,3.4C307.5,219.9,309.8,221.5,310.9,223z"/>
		<path fill="#134998" d="M201.6,155.2c0.4,12.6-1.9,27-9.3,39.8c-10.8,18.8-28.6,28.2-50.9,18.6c-8.1-3.5-14.9-10.1-18.7-18.3
			c-13.3-28.8-13.4-57.6,0.9-86.2c0.2-0.5,0.5-0.9,0.8-1.3c11.4-14.8,26.2-22.6,44.6-16.4c9.6,3.3,17.6,9.8,22.8,19.3
			C199.2,124.1,201.7,138.2,201.6,155.2z M128.2,147c0.8,19.7,2,33.7,10.6,45.9c5.5,7.7,13.6,11.7,22.9,9.9
			c13.5-2.6,18.3-13.4,21.5-24.5c5.1-17.4,5.1-35.3-0.7-52.6c-4.7-14.1-13.5-23.3-27.1-22.1c-11.2,0.9-17.4,8.4-20.8,17.4
			C130.9,130.9,129.4,141.7,128.2,147z"/>
		<path fill="#134998" d="M864.8,130.8c0-17.6,0-34.1,0-50.9c4.7,0,9.2,0,14,0c0,44.2,0,88.3,0,132.7c-3.8,0-7.6,0-11.6,0
			c-0.5-3.7-1-7.4-1.5-11.4c-4.6,3.1-8.9,5.7-12.8,8.8c-8,6.5-23.9,5.9-32.5,0.3c-9.8-6.4-15.4-14.9-17.9-25.9
			c-2.8-12.7-3.1-25.3,1.6-37.6c4.6-12.3,12.2-22.1,25.1-26c11.8-3.6,23.1-2.1,32.2,7.5C862.1,129.1,863.1,129.6,864.8,130.8z
			 M864.6,165.7c0-5.1-0.6-10.2,0.1-15.2c1.1-7.4-2.6-11.4-8.6-14.2c-2-1-4.1-2-6.3-2.6c-10.6-3.1-22.6,1.1-27.4,9.1
			c-7,11.5-8.3,23.9-5.8,36.8c1.4,7.1,4.3,13.9,10.3,18.2c8.1,5.7,17.2,5.5,25.8,0.8c7.5-4.2,13.4-9.7,11.9-19.7
			C864.1,174.5,864.6,170.1,864.6,165.7z"/>
		<path fill="#134998" d="M533.9,134.7c2.2-3,4-5.1,5.4-7.4c5.4-8.6,18.8-11.1,25.8-4c3.2,3.3,4.9,8.3,6.5,12.8
			c1.1,2.9,1.1,6.2,1.1,9.3c0.1,21.5,0.1,43,0.1,64.5c0,0.8-0.1,1.7-0.1,2.7c-4.6,0-8.9,0-13.8,0c0-2.2,0-4.2,0-6.2
			c-0.2-20.8-0.3-41.6-0.5-62.4c-0.1-4.6-1.1-9.1-6-10.6c-5.3-1.7-10,0.5-12.5,5.2c-2.2,4.1-4.4,8.9-4.5,13.4
			c-0.5,20.1-0.2,40.2-0.2,60.6c-3.8,0-7.4,0-11.4,0c-0.1-1.6-0.2-3.3-0.2-5c0-18.9,0-37.8-0.1-56.7c0-3.5-0.2-7-0.9-10.4
			c-1.7-7.8-9.9-10.4-15.7-4.9c-4.5,4.3-7.2,9.6-7.2,16.2c0.1,20.1,0,40.2,0,60.7c-4.5,0-8.7,0-13.4,0c0-30,0-60.3,0-90.8
			c3.5,0,6.9,0,10.7,0c0.5,3.6,0.9,7.2,1.6,12.6c4.4-8.8,9.1-14.9,18.6-15C527.4,119.1,531.8,125.1,533.9,134.7z"/>
		<path fill="#134998" d="M16.9,214.8c0-4.4,0-8.5,0-13.1c9.2,0,18.3,0,27.9,0c0-32.3,0-64.2,0-96.6c-9.1,0-18.3,0-27.8,0
			c0-4.6,0-8.7,0-13.2c23.6,0,47.2,0,71.2,0c0,4.1,0,8.3,0,12.9c-9.2,0-18.4,0-27.9,0c0,32.3,0,64.2,0,96.5c9.2,0,18.4,0,27.9,0
			c0,4.7,0,9,0,13.5C64.4,214.8,40.8,214.8,16.9,214.8z"/>
		<path fill="#134998" d="M776.4,212.8c-4.6,0-8.9,0-13.9,0c0-2.7,0-5.3,0-7.8c0-14.5,0-29,0-43.5c0-3.7-0.2-7.3-0.6-11
			c-1.7-14.1-11.5-20.5-25.4-16.8c-8.8,2.3-14.5,8.6-19.9,15.3c-0.9,1.1-0.7,3.3-0.7,5c0,19.4,0,38.8,0,58.6c-4.7,0-9.3,0-14.1,0
			c0-30.3,0-60.5,0-90.9c3.9,0,7.5,0,11.6,0c0.5,4.7,1,9.5,1.5,15.1c3.9-3.3,8-5.7,10.8-9.2c8.1-10,30.9-10.9,40.1-3.2
			c6.8,5.7,10.4,13.7,10.6,22.5C776.6,168.7,776.4,190.5,776.4,212.8z"/>
		<path fill="#134998" d="M907.6,201.1c2.6-4.1,4.8-7.4,6.9-10.7c4.9,2.9,9.2,6.1,14,8.2c10.6,4.6,21.7,5.1,32.8,2.6
			c4.5-1,8.5-3.1,10.2-8c2.1-5.9,1.3-9.9-4.2-12.9c-5.8-3.3-12-5.9-18.2-8.2c-5.7-2.2-11.7-3.5-17.5-5.4
			c-6.7-2.2-11.6-6.8-15.8-12.1c-5.1-6.5-3.7-17,2.2-24.1c5.9-7.2,13.8-9.7,22.4-10.7c10-1.1,20-0.5,29.2,3.8
			c4.5,2.1,8.6,4.9,13.1,7.5c-2.6,3.4-4.7,6.3-7.1,9.5c-10.2-7-21.2-10-33.3-8.5c-3.4,0.4-6.9,1.4-9.9,3c-6.9,4-6.8,13.1,0,17.1
			c3.7,2.2,7.9,3.6,12,5.1c8.9,3.3,17.9,6.3,26.8,9.6c9.2,3.4,15.6,9.3,16,19.8c0.4,10.6-5.1,17.4-14.1,22.5
			c-14.3,8.2-29.1,7.2-43.8,2.7C921.9,209.6,915.1,205,907.6,201.1z"/>
		<path fill="#134998" d="M596,134.4c0-2.5,0-4.4,0-6.2c0-2.1,0-4.1,0-6.4c18.2,0,35.9,0,53.8,0c0,30.5,0,60.6,0,90.9
			c-4.7,0-9.2,0-14.1,0c0-26.1,0-51.9,0-78.3C622.4,134.4,609.4,134.4,596,134.4z"/>
		<path fill="#134998" d="M652.8,91.5c-0.1,7.3-4.5,11.5-11.9,11.4c-7.2-0.1-11.4-4.6-11.3-12c0.2-6.8,4.7-11.2,11.7-11.2
			C648.5,79.6,652.9,84.2,652.8,91.5z"/>
		<path fill="#134998" d="M361,78.6c0-12.4,12-24.8,22.8-25.2c3.7-0.1,5.9,1.7,6.6,5.1c0.8,4.1-2.4,5.9-5.4,6.3
			c-8.6,1-12.4,5.8-13.7,13.9c-0.3,1.6-3.7,4-5.4,3.8C363.8,82.1,362,79.5,361,78.6z"/>
		<path fill="#134998" d="M413.9,151c-3.7,0.2-6.4-1.1-6.7-5.2c-0.3-4.1,2.1-5,5.8-5.4c7.1-0.9,12.2-6,12.9-13.1
			c0.4-3.8,2-5.7,5.2-5.5c3.6,0.3,5.6,3,5.5,6.8C436.3,139,424,151.1,413.9,151z"/>
		<path fill="#134998" d="M366.4,197.2c-3.2-0.2-6.2-4-5.4-7.4c2.6-11.2,8.8-19.1,20.5-21.8c3.8-0.9,8.2,1.2,8.8,4.3
			c0.6,3.1-2.5,6.5-6.5,7.1c-7.3,1.1-11.2,5.2-12.4,12.8C370.9,196.1,369.7,197.3,366.4,197.2z"/>
		<path fill="#134998" d="M420.7,104.8c-11.5-0.1-23.5-11.7-22.7-22.1c0.2-2.4,3.5-4.6,5.4-6.9c1.6,2,4,3.7,4.7,6
			c1.4,5,8,13,12.6,13.4c3.8,0.3,6.6,1.5,6.4,5.5C426.8,105.3,423.1,104.9,420.7,104.8z"/>
		<path fill="#134998" d="M430.6,207.9c-2.3-3.4-3.8-5-4.6-6.9c-1.9-4-2.1-9-6.9-11.2c-2-0.9-4.2-1.1-6.1-2.2
			c-2.1-1.1-5.1-2.6-5.5-4.4c-0.3-1.6,2.1-4.2,3.8-5.7c0.8-0.7,3-0.1,4.5,0.2c6.2,1.1,11.6,4,15,9.1c2.6,3.9,4.4,8.7,5.4,13.4
			C436.5,202,433.3,204.4,430.6,207.9z"/>
		<path fill="#134998" d="M385.9,141.6c-13.2-0.2-25-11.7-24.7-22.9c0-1.9,3.1-4.3,5.2-5.1c1.1-0.4,4.4,2.1,4.8,3.8
			c2,7.6,5.4,13.4,14.1,14.5c3,0.4,5.9,1.9,4.8,5.3C389.4,139.2,386.7,140.8,385.9,141.6z"/>
		<path fill="#134998" d="M408.2,238.1c-0.9,0.8-3,4-4.5,3.8c-2.2-0.4-5.2-2.9-5.8-5.1c-1.9-6.7-4.6-11.7-12.5-12.5
			c-3-0.3-6.1-2-5.6-6.1c0.5-3.9,3.5-4.4,6.5-4.2C397.9,214.9,407.9,223.8,408.2,238.1z"/>
	</g>
</g>
</svg>
