<?xml version="1.0" encoding="utf-8"?>
<!-- Generator: Adobe Illustrator 21.0.0, SVG Export Plug-In . SVG Version: 6.00 Build 0)  -->
<svg version="1.2" baseProfile="tiny" id="Layer_1" xmlns="http://www.w3.org/2000/svg" xmlns:xlink="http://www.w3.org/1999/xlink"
	 x="0px" y="0px" viewBox="0 0 1000 300" overflow="scroll" xml:space="preserve">
<text transform="matrix(0.752 0 0 1 7.8169 204.4375)" fill="#FFFFFF" font-family="'Amarillo'" font-size="140.9348px">A</text>
<text transform="matrix(0.752 0 0 1 185.8604 204.4375)" fill="#FFFFFF" font-family="'Amarillo'" font-size="140.9348px">n</text>
<text transform="matrix(0.752 0 0 1 258.8794 204.4375)" fill="#FFFFFF" font-family="'Amarillo'" font-size="140.9348px">d</text>
<text transform="matrix(0.752 0 0 1 343.8745 204.4375)" fill="#FFFFFF" font-family="'Amarillo'" font-size="140.9348px">r</text>
<text transform="matrix(0.752 0 0 1 381.4966 204.4375)" fill="#FFFFFF" font-family="'Amarillo'" font-size="140.9348px">i</text>
<text transform="matrix(0.752 0 0 1 421.0249 204.4375)" fill="#FFFFFF" font-family="'Amarillo'" font-size="140.9348px">c</text>
<text transform="matrix(0.752 0 0 1 480.3726 204.4375)" fill="#FFFFFF" font-family="'Amarillo'" font-size="140.9348px">k</text>
<text transform="matrix(0.752 0 0 1 542.4766 204.4375)" fill="#FFFFFF" font-family="'Amarillo'" font-size="140.9348px">S</text>
<text transform="matrix(0.752 0 0 1 667.2119 204.4375)" fill="#FFFFFF" font-family="'Amarillo'" font-size="140.9348px">a</text>
<text transform="matrix(0.752 0 0 1 744.6807 204.4375)" fill="#FFFFFF" font-family="'Amarillo'" font-size="140.9348px">n</text>
<text transform="matrix(0.752 0 0 1 817.6992 204.4375)" fill="#FFFFFF" font-family="'Amarillo'" font-size="140.9348px">t</text>
<text transform="matrix(0.752 0 0 1 863.2695 204.4375)" fill="#FFFFFF" font-family="'Amarillo'" font-size="140.9348px">o</text>
<text transform="matrix(0.752 0 0 1 935.7578 204.4375)" fill="#FFFFFF" font-family="'Amarillo'" font-size="140.9348px">s</text>
</svg>
