<?xml version="1.0" encoding="utf-8"?>
<!-- Generator: Adobe Illustrator 21.0.0, SVG Export Plug-In . SVG Version: 6.00 Build 0)  -->
<svg version="1.2" baseProfile="tiny" id="cicle-logo"
	 xmlns="http://www.w3.org/2000/svg" xmlns:xlink="http://www.w3.org/1999/xlink" x="0px" y="0px" viewBox="0 0 1000 1000"
	 overflow="scroll" xml:space="preserve">
<circle id="circle_1_" fill="none" stroke="#000000" stroke-width="5" stroke-miterlimit="10" cx="500" cy="509" r="477.1"/>
<circle id="circle" fill="none" cx="500" cy="504.8" r="415.9"/>
<text transform="matrix(0.3651 -0.931 0.931 0.3651 108.0776 364.6958)" font-family="'Lora-Italic'" font-size="46.6402px">&lt;</text>
<text transform="matrix(0.4254 -0.905 0.905 0.4254 117.9658 339.6255)" font-family="'Lora-Italic'" font-size="46.6402px">a</text>
<text transform="matrix(0.4797 -0.8774 0.8774 0.4797 129.7349 314.875)" font-family="'Lora-Italic'" font-size="46.6402px">r</text>
<text transform="matrix(0.5235 -0.8521 0.8521 0.5235 140.9316 294.6089)" font-family="'Lora-Italic'" font-size="46.6402px">t</text>
<text transform="matrix(0.5598 -0.8286 0.8286 0.5598 150.9116 278.4849)" font-family="'Lora-Italic'" font-size="46.6402px">i</text>
<text transform="matrix(0.5979 -0.8016 0.8016 0.5979 160.4541 264.3418)" font-family="'Lora-Italic'" font-size="46.6402px">s</text>
<text transform="matrix(0.6364 -0.7714 0.7714 0.6364 173.6211 246.8315)" font-family="'Lora-Italic'" font-size="46.6402px">t</text>
<text transform="matrix(0.6781 -0.735 0.735 0.6781 185.5854 232.2251)" font-family="'Lora-Italic'" font-size="46.6402px">a</text>
<text transform="matrix(0.7139 -0.7003 0.7003 0.7139 204.3901 212.1587)" font-family="'Lora-Italic'" font-size="46.6402px"> </text>
<text transform="matrix(0.7487 -0.6629 0.6629 0.7487 214.4238 202.1265)" font-family="'Lora-Italic'" font-size="46.6402px">p</text>
<text transform="matrix(0.7903 -0.6127 0.6127 0.7903 235.7822 183.3442)" font-family="'Lora-Italic'" font-size="46.6402px">o</text>
<text transform="matrix(0.8251 -0.565 0.565 0.8251 256.5303 167.3843)" font-family="'Lora-Italic'" font-size="46.6402px">r</text>
<text transform="matrix(0.8496 -0.5274 0.5274 0.8496 275.7417 154.4023)" font-family="'Lora-Italic'" font-size="46.6402px"> </text>
<text transform="matrix(0.8752 -0.4838 0.4838 0.8752 287.7437 146.8062)" font-family="'Lora-Italic'" font-size="46.6402px">d</text>
<text transform="matrix(0.9037 -0.4282 0.4282 0.9037 312.0576 133.4941)" font-family="'Lora-Italic'" font-size="46.6402px">e</text>
<text transform="matrix(0.9299 -0.3677 0.3677 0.9299 333.7949 123.1426)" font-family="'Lora-Italic'" font-size="46.6402px">n</text>
<text transform="matrix(0.9502 -0.3115 0.3115 0.9502 362.269 112.1309)" font-family="'Lora-Italic'" font-size="46.6402px">t</text>
<text transform="matrix(0.9649 -0.2627 0.2627 0.9649 380.2314 106.2358)" font-family="'Lora-Italic'" font-size="46.6402px">r</text>
<text transform="matrix(0.9786 -0.2058 0.2058 0.9786 402.0732 100.2861)" font-family="'Lora-Italic'" font-size="46.6402px">o</text>
<text transform="matrix(0.9875 -0.1578 0.1578 0.9875 427.7866 95.0757)" font-family="'Lora-Italic'" font-size="46.6402px"> </text>
<text transform="matrix(0.9943 -0.1069 0.1069 0.9943 441.7813 92.7026)" font-family="'Lora-Italic'" font-size="46.6402px">p</text>
<text transform="matrix(0.999 -4.563726e-02 4.563726e-02 0.999 470.0972 89.7998)" font-family="'Lora-Italic'" font-size="46.6402px">r</text>
<text transform="matrix(0.9999 1.620985e-02 -1.620985e-02 0.9999 492.6821 88.7056)" font-family="'Lora-Italic'" font-size="46.6402px">o</text>
<text transform="matrix(0.9973 7.320912e-02 -7.320912e-02 0.9973 518.8389 89.1201)" font-family="'Lora-Italic'" font-size="46.6402px">g</text>
<text transform="matrix(0.9913 0.1318 -0.1318 0.9913 544.8086 91.1245)" font-family="'Lora-Italic'" font-size="46.6402px">r</text>
<text transform="matrix(0.9818 0.19 -0.19 0.9818 566.9395 94.0342)" font-family="'Lora-Italic'" font-size="46.6402px">a</text>
<text transform="matrix(0.9623 0.2721 -0.2721 0.9623 593.7373 98.9634)" font-family="'Lora-Italic'" font-size="46.6402px">m</text>
<text transform="matrix(0.9359 0.3523 -0.3523 0.9359 634.541 110.9097)" font-family="'Lora-Italic'" font-size="46.6402px">a</text>
<text transform="matrix(0.9103 0.4138 -0.4138 0.9103 660.1484 120.6089)" font-family="'Lora-Italic'" font-size="46.6402px">d</text>
<text transform="matrix(0.8816 0.4721 -0.4721 0.8816 685.335 132.1519)" font-family="'Lora-Italic'" font-size="46.6402px">o</text>
<text transform="matrix(0.8521 0.5235 -0.5235 0.8521 708.3564 144.5942)" font-family="'Lora-Italic'" font-size="46.6402px">r</text>
<text transform="matrix(0.8277 0.5612 -0.5612 0.8277 728.04 156.8569)" font-family="'Lora-Italic'" font-size="46.6402px"> </text>
<text transform="matrix(0.7978 0.6029 -0.6029 0.7978 739.8691 164.7148)" font-family="'Lora-Italic'" font-size="46.6402px">p</text>
<text transform="matrix(0.7568 0.6536 -0.6536 0.7568 762.5068 181.9434)" font-family="'Lora-Italic'" font-size="46.6402px">o</text>
<text transform="matrix(0.7171 0.697 -0.697 0.7171 782.2285 199.1069)" font-family="'Lora-Italic'" font-size="46.6402px">r</text>
<text transform="matrix(0.6852 0.7283 -0.7283 0.6852 798.7705 215.3853)" font-family="'Lora-Italic'" font-size="46.6402px"> </text>
<text transform="matrix(0.6573 0.7536 -0.7536 0.6573 808.5518 225.7983)" font-family="'Lora-Italic'" font-size="46.6402px">f</text>
<text transform="matrix(0.6144 0.789 -0.789 0.6144 819.8525 238.5679)" font-family="'Lora-Italic'" font-size="46.6402px">u</text>
<text transform="matrix(0.5625 0.8268 -0.8268 0.5625 837.8555 261.9268)" font-family="'Lora-Italic'" font-size="46.6402px">e</text>
<text transform="matrix(0.5147 0.8574 -0.8574 0.5147 851.3711 281.9141)" font-family="'Lora-Italic'" font-size="46.6402px">r</text>
<text transform="matrix(0.4633 0.8862 -0.8862 0.4633 862.8975 301.0522)" font-family="'Lora-Italic'" font-size="46.6402px">a</text>
<text transform="matrix(0.3983 0.9172 -0.9172 0.3983 875.582 325.2622)" font-family="'Lora-Italic'" font-size="46.6402px">/</text>
<text transform="matrix(0.3317 0.9434 -0.9434 0.3317 888.293 354.9321)" font-family="'Lora-Italic'" font-size="46.6402px">&gt;</text>
<circle id="circle_2_" fill="none" cx="500" cy="504.8" r="442.4"/>
<text transform="matrix(0.8367 0.5476 -0.5476 0.8367 247.9995 868.6289)" font-family="'Amarillo'" font-size="40px">/</text>
<text transform="matrix(0.8668 0.4987 -0.4987 0.8668 271.3643 883.709)" font-family="'Amarillo'" font-size="40px">*</text>
<text transform="matrix(0.916 0.4012 -0.4012 0.916 291.9014 896.7227)" font-family="'Amarillo'" font-size="40px">A</text>
<text transform="matrix(0.9574 0.2888 -0.2888 0.9574 358.8496 924.4053)" font-family="'Amarillo'" font-size="40px">n</text>
<text transform="matrix(0.977 0.2134 -0.2134 0.977 389.3315 933.5244)" font-family="'Amarillo'" font-size="40px">d</text>
<text transform="matrix(0.9881 0.1536 -0.1536 0.9881 424.4966 940.8135)" font-family="'Amarillo'" font-size="40px">r</text>
<text transform="matrix(0.9936 0.1134 -0.1134 0.9936 441.876 943.4512)" font-family="'Amarillo'" font-size="40px">i</text>
<text transform="matrix(0.998 6.355394e-02 -6.355394e-02 0.998 460.2793 945.5547)" font-family="'Amarillo'" font-size="40px">c</text>
<text transform="matrix(0.9999 1.621174e-02 -1.621174e-02 0.9999 486.1353 946.9766)" font-family="'Amarillo'" font-size="40px">k</text>
<text transform="matrix(0.9964 -8.433542e-02 8.433542e-02 0.9964 514.3516 947.5645)" font-family="'Amarillo'" font-size="40px">S</text>
<text transform="matrix(0.9836 -0.1803 0.1803 0.9836 565.8877 942.5439)" font-family="'Amarillo'" font-size="40px">a</text>
<text transform="matrix(0.9676 -0.2526 0.2526 0.9676 598.7197 936.3369)" font-family="'Amarillo'" font-size="40px">n</text>
<text transform="matrix(0.9508 -0.3098 0.3098 0.9508 629.0039 928.1563)" font-family="'Amarillo'" font-size="40px">t</text>
<text transform="matrix(0.9307 -0.3658 0.3658 0.9307 649.0137 921.6748)" font-family="'Amarillo'" font-size="40px">o</text>
<text transform="matrix(0.9069 -0.4214 0.4214 0.9069 677.9531 910.0273)" font-family="'Amarillo'" font-size="40px">s</text>
<text transform="matrix(0.8844 -0.4668 0.4668 0.8844 697.7207 900.7559)" font-family="'Amarillo'" font-size="40px">*</text>
<text transform="matrix(0.8561 -0.5168 0.5168 0.8561 718.0205 889.9951)" font-family="'Amarillo'" font-size="40px">\</text>
<circle id="circle2" fill="none" stroke="#000000" stroke-width="5" stroke-miterlimit="10" cx="500.1" cy="504.8" r="377.4"/>
<rect x="42.9" y="431.5" fill="none" width="63.2" height="127.3"/>
<text transform="matrix(1 0 0 1 42.8795 549.4572)" font-family="'Amarillo'" font-size="100px">+</text>
<rect x="893.9" y="431.5" fill="none" width="63.2" height="127.3"/>
<text transform="matrix(1 0 0 1 893.8795 549.4572)" font-family="'Amarillo'" font-size="100px">+</text>
<rect x="65.9" y="408.7" fill="none" width="26.5" height="62.4"/>
<text transform="matrix(1.0207 0 0 1 65.8984 466.4971)" font-family="'Amarillo'" font-size="48.9842px">*</text>
<rect x="65.9" y="544.7" fill="none" width="26.5" height="62.4"/>
<text transform="matrix(1.0207 0 0 1 65.8984 602.4971)" font-family="'Amarillo'" font-size="48.9842px">*</text>
<rect x="915.9" y="544.7" fill="none" width="26.5" height="62.4"/>
<text transform="matrix(1.0207 0 0 1 915.8984 602.4971)" font-family="'Amarillo'" font-size="48.9842px">*</text>
<rect x="915.9" y="408.7" fill="none" width="26.5" height="62.4"/>
<text transform="matrix(1.0207 0 0 1 915.8984 466.4971)" font-family="'Amarillo'" font-size="48.9842px">*</text>
<rect x="166.2" y="301.6" fill="none" width="668.1" height="414.8"/>
<text transform="matrix(1 0 0 1 166.1944 571.7294)" font-family="'Amarillo'" font-size="229px">AS</text>
</svg>
