<svg version="1.2" baseProfile="tiny" id="Layer_1" xmlns="http://www.w3.org/2000/svg" xmlns:xlink="http://www.w3.org/1999/xlink"
	 x="0px" y="0px" viewBox="0 0 1000 300" xml:space="preserve">
	 <style>
		path{
			stroke: #fff;
			fill: #fff;
			stroke-dasharray: 1230;
			opacity: 10;
			animation: animate 2s cubic-bezier(.17,.67,.83,.67) ;
		}
		@keyframes animate{
			0%{
				opacity: 1;
				fill: none;
				stroke-dashoffset: 1230;
			}
			30%{
				opacity: 10;
				fill: none;
				stroke-dashoffset: 1230;

			}
			90%{
				fill: rgba(255,255,255,0);

			}
			100%{
				opacity: 10;
				fill: rgba(255,255,255,1);
				stroke-dashoffset: 0;
			}
		}

	 </style>
<g>
	<path fill="#fff" stroke="#FFFFFF" stroke-width="2" stroke-miterlimit="10" d="M44.3,113.4c3.1,0,5.9,0.6,8.5,1.9
		c2.5,1.3,4.7,3,6.5,5.3c1.8,2.3,3.2,4.9,4.2,8c1,3.1,1.5,6.4,1.5,10c0,3.9-0.6,8.1-1.8,12.5c4.2-4.3,8.8-7.9,13.7-10.9
		c4.9-2.9,9.9-5.1,14.9-6.6c5-1.5,9.9-2.2,14.6-2.2c4.7,0,9.1,0.8,13,2.3c4.3-9.2,8.5-18.7,12.5-28.5c4-9.8,7.7-19.8,11.1-29.9
		c3.4-10.1,6.5-20.2,9.3-30.4c2.8-10.2,5.1-20.3,7-30.2v0.1c0.1-0.6,0.4-1.1,0.7-1.6c0.4-0.5,0.7-0.9,1.2-1.1
		c0.8-1.5,2.3-2.3,4.3-2.3c3.2,0,5.8,0.7,7.8,2c2,1.4,3.6,3.2,4.8,5.5c1.2,2.3,2,5,2.4,8c0.5,3,0.7,6.2,0.7,9.4c0,0.9,0,2.1,0,3.5
		c0,1.4,0,2.6-0.1,3.6c-0.6,6.5-1.4,13.7-2.5,21.8c-1.1,8-2.4,16.5-3.8,25.5c-1.4,9-3,18.2-4.7,27.7c-1.7,9.5-3.3,18.9-5,28.3
		c5.7-0.2,11.1-2.4,16.4-6.6c5.3-4.2,10.3-10.5,15-19.1c1.2-1.2,2.2-1.5,2.9-0.9c0.7,0.6,1.2,1.7,1.4,3.3
		c-2.9,5.7-5.8,10.5-8.7,14.3c-2.9,3.8-5.9,6.9-9,9.2c-3.1,2.3-6.2,4-9.5,5.2c-3.3,1.2-6.6,2-10,2.3c-0.9,6.7-1.6,13.8-2.1,21.3
		c-0.5,7.5-0.7,15.1-0.7,22.7c0,8.7,0.4,17.3,1.3,25.7c0.8,8.4,2.3,15.8,4.3,22.3c2,6.5,4.8,11.7,8.2,15.6s7.7,5.9,12.8,5.9
		c2,0,4.4-0.4,6.9-1.3c2.6-0.8,5.3-2.1,8.1-3.8c2,0.9,3.1,2.1,3.1,3.4c0,0.7-0.2,1.5-0.5,2.4c-0.4,0.9-0.8,1.8-1.4,2.7
		c-4.3,2.4-8.4,4.2-12.1,5.3c-3.8,1.1-7.5,1.6-11.1,1.6c-4.9,0-9.3-1.1-13.1-3.4c-3.9-2.3-7.3-5.4-10.2-9.4c-2.9-4-5.4-8.8-7.5-14.3
		c-2.1-5.5-3.8-11.5-5.1-18c-1.3-6.5-2.3-13.4-2.9-20.6c-0.6-7.2-0.9-14.6-0.9-22c0-6.1,0.2-12.4,0.6-18.8c0.4-6.4,1-12.7,1.7-18.8
		c-3.6-0.8-7.1-1.8-10.4-3c-3.4-1.1-6.9-2.4-10.8-3.8c-6.2,12.9-12.9,25.2-20.1,36.9c-7.2,11.7-14.6,22-22,30.7
		c-2.5,2.8-5,5.5-7.6,8.2c-2.6,2.6-5.4,5-8.2,7c-2.9,2-5.9,3.6-9.1,4.9c-3.2,1.2-6.6,1.8-10.2,1.8c-5.2,0-10.3-1.3-15.2-3.9
		c-4.9-2.6-9.2-6.4-12.9-11.3C13,213.8,10,207.9,7.8,201c-2.2-6.9-3.3-14.7-3.3-23.3c0-7.3,0.9-14.8,2.7-22.4
		c1.8-7.6,4.4-14.5,7.8-20.7c3.4-6.2,7.6-11.3,12.6-15.2C32.5,115.4,38.1,113.4,44.3,113.4z M115,142.3c-2.5-0.8-5-1.4-7.3-1.8
		c-2.3-0.3-4.5-0.5-6.5-0.5c-8.5,0-16.5,2.7-24,8.2c-7.4,5.4-14.3,13-20.7,22.5c-0.4,0.4-0.9,0.7-1.5,1c-0.6,0.3-1.1,0.4-1.5,0.4
		c-0.8,0-1.6-0.3-2.3-0.9c-0.7-0.6-1-1.6-0.9-2.9c1.3-2,2.5-4.1,3.7-6.4c1.2-2.3,2.2-4.8,3.1-7.4c0.8-2.6,1.5-5.3,1.9-8.1
		c0.4-2.8,0.4-5.6,0.1-8.4c-1.1-4-2.7-6.9-4.6-8.6c-1.9-1.7-3.8-2.6-5.5-2.8c-2.7-0.1-5.4,1.2-8.1,3.9c-2.7,2.7-5.3,6.3-7.6,10.8
		c-2.4,4.5-4.5,9.7-6.3,15.4c-1.8,5.8-3.1,11.7-3.9,17.7c-0.7,5-0.8,10.5-0.3,16.4c0.5,6,1.7,11.6,3.7,16.8s4.5,9.6,7.8,13.1
		c3.3,3.5,7.4,5.3,12.3,5.3c2.2,0,4.4-0.4,6.5-1.2c2.2-0.8,4.4-2,6.8-3.5c4.1-2.9,8.4-6.9,12.9-12c4.5-5.1,9.1-11,13.9-17.8
		c4.7-6.8,9.5-14.3,14.3-22.5c4.8-8.2,9.4-16.9,14-26.1L115,142.3z M157.6,52.7c-3.8,12.5-8.4,25.9-13.8,40.3
		c-5.4,14.4-11.4,28.9-18.1,43.7c3.2,1.3,6.3,2.5,9.3,3.7c3,1.1,6.1,2.2,9.3,3.1c3.2-19.1,6-36.2,8.3-51.3
		c2.4-15.1,4.3-28.2,5.7-39.2L157.6,52.7z"/>
	<path fill="#fff" stroke="#FFFFFF" stroke-width="2" stroke-miterlimit="10" d="M206.3,132.1c-0.2,1-0.4,2-0.6,3
		c-0.2,0.9-0.3,1.8-0.5,2.7c0.8-1.6,1.7-3.3,2.5-5.1c0.8-1.8,1.7-3.6,2.7-5.5c1.9-3.9,3.9-7.9,5.9-11.9c2-4,4.2-7.6,6.5-10.9
		c2.3-3.2,4.6-5.9,7.2-7.9c2.5-2,5.2-3,8-3c2,0,3.6,0.4,4.9,1.3c1.3,0.9,2.3,2.1,3,3.7c0.7,1.6,1.2,3.4,1.4,5.6
		c0.2,2.2,0.2,4.5,0.1,7c-0.4,5.3-1.3,11.2-2.8,17.7c-1.5,6.5-3.1,13.1-5,19.7c-1.6,6-3,11.9-4.3,17.8c-1.3,5.8-2.2,10.8-2.5,14.8
		c0,0.9,0,2,0.1,3.3c0,1.3,0.1,2.5,0.3,3.6c0.1,1.1,0.4,2.1,0.7,2.8c0.4,0.8,0.8,1.1,1.4,1.1c1,0,2.3-1.1,3.9-3.5
		c1.6-2.3,3.4-5.2,5.2-8.8c1.9-3.6,3.8-7.5,5.7-11.8c1.9-4.3,3.7-8.5,5.4-12.5c1.7-4,3.2-7.7,4.5-10.9c1.3-3.2,2.2-5.5,2.8-6.9
		c0-0.3,0.1-0.6,0.3-0.8l0.4-1.1c0.4-0.8,0.7-1.6,1-2.1c0.3-0.6,0.8-0.8,1.6-0.8c0.7,0,1.3,0.3,1.6,0.8c0.4,0.5,0.7,1.2,1,1.9
		c-0.5,1.1-1,2.5-1.6,4.1c-0.6,1.6-1.2,3.2-1.7,4.8c-1.4,3.7-3,7.7-4.6,12c-1.7,4.4-3.4,8.7-5.3,13.1c-1.9,4.4-3.8,8.6-5.9,12.7
		c-2.1,4.1-4.2,7.7-6.3,10.9c-2.2,3.2-4.3,5.7-6.5,7.6c-2.2,1.9-4.4,2.8-6.6,2.8c-2.5,0-4.5-0.5-6.2-1.5c-1.7-1-3-2.3-4-4
		c-1-1.7-1.7-3.7-2.2-6.1c-0.5-2.3-0.7-4.9-0.7-7.8c0-0.6,0-1.2,0-2c0-0.8,0-1.5,0.1-2.1c0.3-3.7,0.8-7.6,1.6-11.7
		c0.8-4.1,1.7-8.4,2.7-12.7c1-4.3,2.1-8.6,3.2-12.8c1.2-4.2,2.3-8.1,3.3-11.8c1.4-5.1,2.7-9.6,3.8-13.5c1.1-3.9,1.7-6.9,1.9-8.7
		c0.1-1.7-0.2-2.5-1-2.5c-1.3,0-2.7,0.9-4.4,2.7c-1.7,1.8-3.4,4.2-5.3,7.2c-1.9,3-3.8,6.3-5.7,9.9c-1.9,3.7-3.7,7.4-5.5,11.1
		c-1.8,3.7-3.4,7.2-4.8,10.5c-1.4,3.3-2.7,6-3.7,8.2v-0.1l-1.7,3.9h0.1c-1.2,3.9-2.2,8.2-3.1,13.2c-0.8,4.9-1.4,9.6-1.7,14
		c-0.1,0.8-0.1,1.5-0.1,2.2c0,0.7,0,1.4,0,2.2c0,2.3,0.1,4.2,0.3,5.8c0.2,1.6,0.4,2.9,0.6,3.9c0.2,0.8,0.3,1.5,0.3,2
		c0,1.3-0.8,2-2.3,2c-2.5,0-4.7-0.7-6.4-2c-1.7-1.4-3-3.1-4-5.4c-1-2.2-1.6-4.7-2-7.5c-0.4-2.8-0.6-5.7-0.6-8.6c0-0.9,0-1.9,0.1-2.8
		c0-0.9,0.1-1.9,0.2-3c0.2-3.1,0.5-6.3,0.9-9.7c0.4-3.4,0.8-6.8,1.4-10.2c0.5-3.4,1.1-6.8,1.7-10.1c0.6-3.3,1.2-6.4,1.8-9.4
		c1-5.1,1.9-9.8,2.6-14.2c0.7-4.4,1.2-8.2,1.4-11.4c0.1-1.5,0.1-2.8-0.1-3.9s-0.2-2.2-0.4-3.1c-0.1-0.5-0.1-0.9-0.2-1.3
		c0-0.4-0.1-0.8-0.1-1.1c0.1-1.3,0.5-2.2,1.3-2.7c0.8-0.5,1.7-0.7,2.7-0.7c2.7,0,4.8,0.6,6.5,1.8c1.6,1.2,2.9,2.7,3.8,4.6
		c0.9,1.9,1.4,4,1.7,6.3c0.2,2.3,0.3,4.6,0.2,7c-0.1,2.5-0.4,5.1-0.8,7.7C207.3,127.5,206.8,129.9,206.3,132.1z"/>
	<path fill="#fff" stroke="#FFFFFF" stroke-width="2" stroke-miterlimit="10" d="M313.7,205.4c-6.2,0-10.6-2.1-13.2-6.3
		c-2.6-4.2-3.9-10.1-3.9-17.7c0-0.8,0-1.8,0.1-2.7c0-1,0.1-2,0.2-3c0-0.7,0-1.2,0-1.5c0-0.4,0-0.8,0.1-1.1c0-0.4,0.1-0.8,0.1-1.3
		c0-0.5,0.1-1.2,0.3-2.2c-2,4.3-4.1,8.6-6.5,12.8c-2.3,4.2-4.8,8-7.5,11.4s-5.4,6.1-8.3,8.2c-2.9,2.1-5.9,3.1-8.9,3.1
		c-2.8,0-5.1-0.6-7-1.9s-3.4-3-4.6-5.1c-1.2-2.2-2-4.7-2.5-7.5c-0.5-2.9-0.7-5.8-0.7-8.9c0-0.8,0-1.5,0-2.3c0-0.8,0-1.5,0.1-2.3
		c0.4-4.7,1.3-9.9,2.7-15.6c1.4-5.7,3.1-11.5,5.3-17.4c2.2-5.9,4.6-11.6,7.5-17.1c2.8-5.5,5.9-10.5,9.3-14.7
		c3.4-4.3,6.9-7.7,10.7-10.3c3.7-2.6,7.6-3.9,11.7-3.9c1.9,0,3.7,0.4,5.3,1.1c1.6,0.8,3.1,1.8,4.6,3.2l1.1-5.4
		c0.8-4.4,1.5-8.6,2.2-12.7c0.7-4,1.3-7.8,1.9-11.1c0.6-3.4,1-6.3,1.4-8.9c0.4-2.5,0.6-4.5,0.6-5.9c0.1-1.6,0.1-3-0.1-4.1
		s-0.2-2.1-0.4-3c-0.1-0.5-0.1-0.9-0.2-1.3c0-0.4-0.1-0.8-0.1-1.2c0.1-1.3,0.5-2.2,1.3-2.6c0.8-0.4,1.7-0.6,2.7-0.6
		c2.8,0,5,0.6,6.6,1.7c1.7,1.1,2.9,2.6,3.8,4.4c0.8,1.8,1.4,3.9,1.6,6.3c0.2,2.4,0.2,4.7,0.1,7.2c-0.1,2.2-0.5,5.1-1,8.7
		c-0.5,3.7-1.1,7.8-1.9,12.5c-0.8,4.7-1.6,9.7-2.6,15.1c-1,5.4-1.9,11-2.9,16.7c-0.3,1.9-0.7,4.2-1.2,6.8c-0.5,2.7-1,5.5-1.6,8.5
		c-0.8,4-1.6,8.2-2.4,12.7c-0.8,4.5-1.6,9-2.3,13.5c-0.7,4.5-1.3,8.7-1.7,12.8s-0.6,7.7-0.6,10.8c0,0.8,0,1.6,0,2.4s0.1,1.5,0.2,2.1
		c0.4,3.9,1.7,5.8,3.8,5.8c0.8,0,1.8-0.3,2.8-0.8c1-0.6,2-1.3,3-2.2c1-0.9,1.9-1.9,2.9-3c0.9-1.1,1.7-2.1,2.4-3.2
		c1.8-2.7,3.6-5.8,5.3-9.2c1.7-3.4,3.3-6.9,4.8-10.5c1.5-3.6,2.9-7.1,4.2-10.6c1.3-3.5,2.5-6.7,3.6-9.5c1-2.6,1.8-4.9,2.5-6.8
		c0.7-1.9,1.2-3.2,1.6-3.9c0.3-0.3,0.6-0.5,0.9-0.6c0.3-0.1,0.6-0.1,0.8-0.1c0.6,0,1,0.3,1.4,0.8c0.4,0.5,0.7,1.2,1,1.9
		c-0.7,1.7-1.4,3.6-2.1,5.6c-0.7,2.1-1.4,4.1-2.2,6.1c-1.3,3.4-2.6,6.9-3.9,10.5c-1.3,3.6-2.7,7.2-4.2,10.8c-1.4,3.6-2.9,7-4.5,10.4
		c-1.5,3.4-3.1,6.5-4.7,9.3c-1.2,2-2.5,3.9-3.8,5.9c-1.3,2-2.8,3.7-4.3,5.3c-1.6,1.6-3.2,2.9-5,3.9
		C317.7,204.6,315.8,205.2,313.7,205.4z M300.3,148.6c0.8-4.7,1.6-9.6,2.4-14.6c0.8-5,1.7-10.1,2.6-15.3c0.1-1,0.3-2,0.6-2.9
		c0.2-0.9,0.4-1.9,0.6-2.9c-1.4-1.4-3.1-2.1-5.1-2.1c-2.5,0-5,1.3-7.5,3.9c-2.5,2.6-5,5.9-7.3,10c-2.3,4.1-4.5,8.7-6.6,13.7
		c-2.1,5.1-3.9,10.1-5.5,15.2c-1.6,5-2.9,9.7-3.9,14.2c-1,4.4-1.6,8-1.7,10.7c-0.1,1.3-0.2,2.7-0.1,4.2c0.1,1.5,0.3,2.9,0.6,4.2
		c0.3,1.3,0.8,2.3,1.5,3.1c0.7,0.8,1.7,1.2,3,1.2c1.6,0,3.2-0.8,4.9-2.3c1.7-1.5,3.4-3.5,5.1-5.9c1.7-2.4,3.3-5.2,4.9-8.3
		s3.1-6.2,4.6-9.4c1.4-3.1,2.8-6.2,3.9-9.2c1.2-3,2.2-5.5,3-7.7L300.3,148.6z"/>
	<path fill="#fff" stroke="#FFFFFF" stroke-width="2" stroke-miterlimit="10" d="M367.7,271.9c-3.7,0-7.2-0.8-10.5-2.4
		c-3.3-1.6-6.1-4-8.6-7.3c-2.5-3.3-4.5-7.4-5.9-12.3c-1.5-4.9-2.3-10.7-2.3-17.4c-10.1-3.9-21.5-5.9-34.2-5.9
		c-5.3,0-10.8,0.3-16.5,0.9c-5.7,0.6-11.6,1.5-17.6,2.7c-8.4,1.7-16.6,4.1-24.7,7.3c-8.1,3.1-15.5,7.1-22.4,11.9s-13,10.5-18.3,17.1
		c-5.3,6.6-9.5,14.1-12.5,22.5c-0.1,0.2-0.2,0.4-0.3,0.8c-0.1,0.3-0.2,0.6-0.3,0.9c-0.4,1.3-0.8,2.8-1.5,4.4
		c-0.6,1.6-1.6,2.5-2.9,2.7c-1.4-0.1-2.6-1.2-3.6-3.2c-1-2.1-1.7-4.4-2.3-7c-0.7-2.9-1.1-6.1-1.1-9.6c0-3.9,0.5-7.7,1.4-11.5
		c1-3.8,2.2-7.5,3.9-11c1.6-3.5,3.5-6.9,5.7-10.1c2.2-3.2,4.4-6.1,6.7-8.6c4.1-4,8.8-7.6,14.1-10.7c5.3-3.1,11-5.8,17-8
		c6-2.3,12.3-4.1,18.8-5.6c6.5-1.5,12.9-2.7,19.2-3.5c3.4-0.5,6.8-0.8,10.2-0.9c3.4-0.1,6.7-0.2,9.9-0.2c9.8,0,19.1,1,28,3
		s17.1,5.3,24.6,9.9c1.1-8.6,2.4-16.7,3.9-24.2c1.5-7.5,3-14.6,4.7-21.2c1.6-6.6,3.3-12.8,5-18.5c1.7-5.7,3.3-11.1,4.8-16.1
		c0.6-2,1.1-3.9,1.6-5.8c0.5-1.9,1.1-3.9,1.7-5.8c-0.6,0-1.2,0-1.7,0s-1,0-1.5-0.1c-0.6,0-1.2,0-2-0.1c-0.8,0-1.4-0.1-2-0.2
		l-7.2,19.9c-1.5-0.5-2.5-0.8-3.1-0.9c-0.6-0.1-1.1-0.4-1.5-0.6c1.2-3.3,2.4-6.5,3.7-9.6c1.2-3.1,2.5-6.3,3.7-9.6
		c-2.6-0.2-4.8-1-6.6-2.4c-1.8-1.4-3.2-3.2-4.2-5.4c-1.1-2.2-1.8-4.7-2.2-7.5c-0.4-2.8-0.5-5.6-0.3-8.5c0.2-3.2,0.8-6.4,1.7-9.7
		s2.2-6.2,3.9-8.7c1.6-2.6,3.5-4.7,5.7-6.3c2.2-1.6,4.6-2.4,7.3-2.4c3,0,5.1,1.2,6.5,3.7c1.4,2.5,2,6.1,1.7,10.8
		c-0.2,2.3-0.5,4.8-1,7.4c-0.5,2.6-1,5.1-1.5,7.5c-0.5,2.4-1.1,4.7-1.6,6.8c-0.6,2.1-1,3.8-1.4,5.1c-0.1,0.3-0.2,0.5-0.2,0.7
		c0,0.2-0.1,0.5-0.2,0.8c0.8,0.2,1.7,0.3,2.7,0.4c1,0.1,2,0.1,3,0.1c0.6,0,1.1,0,1.7-0.1c0.6,0,1.2-0.1,1.9-0.1c0.6,0,1.1,0,1.7-0.1
		c0.6,0,1.1-0.1,1.6-0.1c1.3,0,2.4,0.1,3.5,0.2c1.1,0.1,2,0.4,2.9,0.9c1.8,1,2.6,3.5,2.6,7.3c0,2.3-0.3,4.9-0.8,7.8
		c-0.6,3-1.2,6-2,9.1c-0.8,3.1-1.6,6.2-2.5,9.2c-0.9,3-1.7,5.6-2.4,7.9c-0.3,0.8-0.6,1.8-1,2.8c-0.4,1-0.6,2-0.8,2.8
		c-1.3,5.1-2.7,10.3-4.1,15.7c-1.4,5.4-2.8,10.8-4.1,16.1c-1.3,5.4-2.5,10.6-3.6,15.8c-1.1,5.2-1.9,10.1-2.6,14.8
		c1.6,1.6,3.1,3.1,4.4,4.7c1.3,1.5,2.6,3.2,3.9,5.1c0-5.9,1.1-10.8,3.2-14.7c2.1-3.9,4.8-6.6,7.9-8.2c2.8-1.3,5.3-2,7.7-2
		c2.5,0,4.8,0.6,6.9,1.9c2,1.3,3.8,3,5.2,5.1c1.4,2.1,2.6,4.6,3.3,7.3c0.8,2.8,1.2,5.7,1.2,8.8c0,3.2-0.6,6.5-1.7,9.8
		c-1.1,3.3-2.8,6.5-5,9.5c-2.2,3-5,5.7-8.3,8.1c-3.3,2.4-7.1,4.3-11.4,5.6c-1.1,0.2-2.2,0.4-3.3,0.5
		C369.9,271.9,368.8,271.9,367.7,271.9z M351.1,111.4c-0.1,1.8,0,3.3,0.5,4.4c0.5,1.2,1.4,2,2.7,2.5c0.3-0.8,0.7-2.2,1.3-4.1
		c0.6-1.9,1.2-4,1.9-6.3c0.6-2.3,1.2-4.6,1.7-7c0.5-2.3,0.8-4.4,1-6.2c0.1-2-0.1-3-0.4-3c-0.6,0-1.3,0.6-2.2,1.9
		c-0.9,1.3-1.8,2.9-2.7,4.9c-0.9,2-1.7,4.1-2.4,6.4C351.6,107.3,351.2,109.4,351.1,111.4z M367,255.2c-0.5-2-1.5-4.3-3.1-6.8
		c-1.6-2.6-4-5.2-7.4-7.8c0.2,2.8,0.6,5.6,1.2,8.4c0.6,2.8,1.5,5.3,2.6,7.5c1.2,2.2,2.6,3.9,4.3,5.1c1.7,1.2,3.7,1.6,6.1,1.1
		c3-0.5,5.7-1.6,7.9-3.4c2.3-1.8,4.1-3.9,5.7-6.4c1.5-2.5,2.7-5.1,3.4-8c0.8-2.8,1.2-5.5,1.2-8.2c0-3.2-0.6-5.9-1.7-8.1
		c-1.1-2.2-2.9-3.3-5.4-3.3c-0.4,0-0.9,0-1.5,0.1c-0.6,0.1-1.2,0.3-1.9,0.6c-1.2,0.5-2.4,1.3-3.4,2.5c-1.1,1.2-2.1,2.6-2.9,4.2
		c-0.8,1.6-1.5,3.5-2,5.6c-0.5,2.1-0.7,4.2-0.7,6.5c0,2.8,0.5,5.7,1.4,8.7l-0.1-0.1c0.4,1,0.5,1.8,0.3,2.3c-0.2,0.5-0.7,1.1-1.4,1.6
		c-0.7,0.4-1.3,0.3-1.6-0.1c-0.4-0.5-0.7-1.1-0.9-1.8V255.2z"/>
	<path fill="#fff" stroke="#FFFFFF" stroke-width="2" stroke-miterlimit="10" d="M391,111.3c0.2-1.5,0.3-2.8,0.3-3.9
		c0-1,0.1-1.9,0.2-2.7c0.3-1.2,0.8-1.9,1.7-2.2c0.8-0.2,1.8-0.2,2.8,0.2c3,1.4,5.1,3,6.5,4.7c1.3,1.7,2,3.9,2,6.6
		c0,1.3-0.1,2.8-0.4,4.4c-0.2,1.6-0.6,3.3-1,5.2c-0.7,3-1.5,6.6-2.4,10.9c-0.9,4.3-1.7,8.8-2.6,13.5c-0.8,4.7-1.6,9.5-2.3,14.2
		c-0.7,4.7-1.2,9-1.5,13c-0.1,0.9-0.1,2-0.2,3c0,1.1-0.1,2-0.1,2.7c0,3.3,0.2,5.9,0.7,8c0.5,2,1.3,3.1,2.5,3.2c1,0,2.1-0.8,3.4-2.4
		c1.3-1.6,2.7-3.7,4.2-6.3c1.5-2.6,3-5.6,4.6-8.9c1.6-3.3,3.1-6.8,4.7-10.4c1.6-3.6,3-7.2,4.5-10.7c1.4-3.5,2.7-6.7,3.8-9.7
		c0.9-2.3,1.7-4.3,2.4-6c0.7-1.7,1.3-3.2,1.9-4.3c0.7-0.5,1.2-0.7,1.6-0.7c0.9,0,1.8,0.9,2.6,2.8l-1.2,3c-1.4,3.8-3,8-4.8,12.8
		c-1.8,4.7-3.7,9.5-5.8,14.4c-2.1,4.8-4.3,9.6-6.5,14.2c-2.3,4.6-4.5,8.7-6.8,12.3c-2.3,3.6-4.5,6.4-6.8,8.6
		c-2.3,2.2-4.4,3.2-6.5,3.2c-2.5,0-4.5-0.7-6.2-2c-1.7-1.3-3-3.1-4-5.4c-1-2.3-1.7-5-2.2-8c-0.4-3.1-0.6-6.4-0.6-9.9
		c0-1.1,0-2.3,0.1-3.5c0-1.2,0.1-2.3,0.2-3.5c0.6-9.2,1.8-18.3,3.6-27.1c1.8-8.9,3.9-17.8,6-26.7l1.5-6.5V111.3z M410.2,75.1
		c0.8,1.9,1.3,3.6,1.6,5.1s0.4,3,0.4,4.3c-0.2,3.2-1.2,5.7-3.1,7.4c-1.8,1.7-3.7,2.6-5.7,2.6c-1.7,0-3.2-0.9-4.5-2.7
		c-1.3-1.8-1.8-4.7-1.7-8.7c0.1-1.5,0.3-3,0.7-4.6s1-2.9,1.6-4.2c0.6-1.2,1.4-2.2,2.3-3c0.9-0.8,1.8-1.1,2.8-1.1
		c0.9,0,1.9,0.4,2.8,1.1C408.5,72.1,409.4,73.4,410.2,75.1z"/>
	<path fill="#fff" stroke="#FFFFFF" stroke-width="2" stroke-miterlimit="10" d="M478.1,165.8c-1.9,4.5-4,9.2-6.4,14.2
		s-5,9.4-8,13.5c-3,4-6.4,7.4-10.3,10c-3.9,2.6-8.2,3.9-13.2,3.9c-3.7,0-6.8-1-9.4-3.1c-2.6-2.1-4.7-4.8-6.3-8.2
		c-1.6-3.4-2.7-7.4-3.4-11.8c-0.7-4.5-1.1-9.1-1.1-14c0-1.2,0-2.4,0-3.6c0-1.2,0.1-2.4,0.2-3.7v0.1c0.4-5.3,1.1-10.6,2.1-16
		c1.1-5.4,2.4-10.7,4.1-15.8c1.7-5.1,3.6-9.9,5.8-14.4c2.2-4.5,4.6-8.4,7.3-11.8c2.6-3.4,5.5-6,8.5-8c3-1.9,6.1-2.9,9.4-2.9
		c3.1,0,5.9,1,8.3,2.9c2.4,1.9,4.5,4.4,6.1,7.5c1.7,3.1,2.9,6.6,3.7,10.5c0.8,3.9,1.1,7.8,0.8,11.8c-0.1,0.8-0.2,1.8-0.3,2.8
		c-0.1,1-0.3,2-0.5,3c-0.2,0.9-0.6,1.7-1.2,2.3c-0.5,0.6-1.3,0.9-2.2,0.9c-0.4-0.1-0.7-0.2-1-0.4c-0.3-0.2-0.7-0.6-1.1-1.1
		c0.3-1.3,0.5-2.6,0.7-3.7c0.2-1.2,0.3-2.3,0.4-3.3c0.1-2,0-3.9-0.1-5.8c-0.1-1.9-0.4-3.6-0.8-5.1c-0.4-1.5-1-2.7-1.6-3.7
		c-0.7-0.9-1.5-1.4-2.4-1.4c-1.4,0-3,0.9-4.7,2.8c-1.7,1.9-3.5,4.4-5.2,7.6c-1.8,3.2-3.5,6.9-5.3,11.1c-1.8,4.2-3.4,8.7-4.8,13.3
		c-1.4,4.7-2.7,9.4-3.8,14.3c-1.1,4.9-1.9,9.5-2.4,14c-0.1,0.8-0.1,1.6-0.2,2.5c0,0.9-0.1,1.7-0.1,2.5c0,2.3,0.1,4.4,0.4,6.3
		c0.3,2,0.7,3.7,1.4,5.3c0.6,1.5,1.5,2.8,2.5,3.7c1.1,0.9,2.4,1.3,4,1.3c2.8,0,5.4-1.1,7.8-3.2c2.5-2.1,4.8-4.7,6.9-7.9
		c2.1-3.1,4.1-6.6,5.8-10.2c1.8-3.7,3.4-7,4.8-10.1v0.1c1.7-3.9,3.3-7.8,4.7-11.6c1.4-3.8,2.8-7.3,4-10.4c0.6-1.4,1.2-3,1.9-4.8
		c0.7-1.8,1.3-3.3,1.9-4.7c0.8-0.5,1.4-0.7,1.6-0.7c0.6,0,1.1,0.3,1.5,0.8c0.4,0.5,0.7,1.2,1,1.9l-1.1,3.1
		c-1.3,3.5-2.8,7.6-4.7,12.5C482.5,155.7,480.4,160.7,478.1,165.8z"/>
	<path fill="#fff" stroke="#FFFFFF" stroke-width="2" stroke-miterlimit="10" d="M512.4,65.1c-0.5,6.5-1.4,13.9-2.8,22.1
		c-1.3,8.3-2.9,16.9-4.7,25.9c2.8-3.6,5.8-6.3,9-8.3c1.8-1.1,3.6-1.9,5.4-2.5c1.7-0.5,3.3-0.8,4.8-0.8c3.5,0,6.3,1.5,8.3,4.6
		c2,3.1,2.9,7.3,2.7,12.6c-0.4,5-1.6,10-3.6,15.2c-1.9,5.1-4.4,9.8-7.3,14.1c-2.9,4.3-6.1,7.9-9.8,11c-3.6,3.1-7.3,5-11,5.8
		c0.2,0.8,0.6,2.2,1.2,4.1c0.6,1.9,1.3,4,2.2,6.3c0.8,2.3,1.8,4.7,2.8,7.1c1,2.4,2.1,4.7,3.3,6.8c1.2,2.1,2.3,3.8,3.6,5.1
		c1.2,1.4,2.4,2.1,3.5,2.2c0.9,0.2,2-0.6,3.1-2.3s2.4-4,3.8-7c1.3-3,2.8-6.6,4.3-10.7c1.6-4.1,3.2-8.6,5-13.4
		c1.5-4.2,3.1-8.9,5-13.9c1.8-5,3.8-10.2,5.9-15.6c0.8-0.4,1.5-0.5,2.3-0.4c0.7,0.1,1.3,1,1.7,2.5c-2,5.5-3.9,10.7-5.7,15.7
		c-1.7,5-3.3,9.7-4.8,13.9c-1.9,5.4-3.7,10.4-5.5,15c-1.7,4.7-3.4,8.7-5,12.3c-1.6,3.5-3.2,6.4-4.8,8.5c-1.6,2.2-3.2,3.5-4.7,4.1
		c-2.9,0.8-5.7,0.2-8.5-1.6s-5.4-4.3-7.8-7.5c-2.4-3.1-4.6-6.6-6.4-10.4c-1.8-3.8-3.3-7.3-4.2-10.5c-0.3,2.6-0.6,4.9-0.8,6.9
		c-0.2,2-0.4,4.1-0.5,6.5c-0.1,0.8-0.1,1.6-0.2,2.3c0,0.7-0.1,1.4-0.1,2.2c0,2.3,0.1,4.2,0.4,5.8c0.2,1.6,0.5,2.9,0.7,3.9v-0.1
		c0.2,0.8,0.3,1.5,0.3,2.1c0,1.3-0.8,2-2.4,2c-2.6,0-4.7-0.7-6.4-2.2c-1.7-1.5-3-3.4-4-5.8c-1-2.4-1.7-5.1-2.1-8
		c-0.4-3-0.6-6-0.6-9.1c0-1,0-2,0.1-3c0-0.9,0.1-1.9,0.2-3c0.2-3.3,0.7-7.5,1.4-12.7c0.7-5.2,1.6-10.9,2.5-17.1
		c1-6.2,2.1-12.7,3.3-19.6c1.2-6.9,2.5-13.6,3.7-20.3c0.9-5.4,1.8-10.5,2.7-15.6c0.9-5,1.7-9.7,2.4-13.9c0.7-4.2,1.3-7.9,1.7-11.1
		c0.4-3.1,0.7-5.6,0.8-7.3c0.1-1.6,0.1-3-0.1-4.1s-0.2-2.1-0.4-3c-0.1-0.5-0.1-0.9-0.2-1.3c0-0.4-0.1-0.9-0.1-1.3
		c0.1-1.3,0.6-2.2,1.3-2.5c0.7-0.4,1.6-0.6,2.7-0.6c2.8,0,5,0.6,6.6,1.7s2.9,2.6,3.8,4.4c0.8,1.8,1.4,3.9,1.6,6.3
		C512.5,60.2,512.5,62.6,512.4,65.1z M511.5,114.8c-1.6,1.3-3.3,3.1-5,5.4c-1.7,2.3-3.2,4.7-4.6,7.3c-1,5-2,9.8-2.9,14.6
		c-1,4.7-1.8,9.5-2.6,14.3c2.8-0.7,5.5-2.6,8.2-5.8c2.7-3.2,5.2-6.9,7.3-11.1c2.2-4.1,3.9-8.3,5.2-12.6c1.3-4.3,2-7.8,2-10.5
		c0-2.9-0.8-4.4-2.3-4.4C515.8,112,514,112.9,511.5,114.8z"/>
	<path fill="#fff" stroke="#FFFFFF" stroke-width="2" stroke-miterlimit="10" d="M551.8,198.7c1,0,1.3,1,1,3.1l-0.7,2
		c-0.4,0.8-0.7,1.6-1,2.5c-0.3,0.9-0.4,2.1-0.4,3.4c0,1.8,0.4,4.1,1.1,6.9c1.1,5.4,2.8,10,5.1,13.9c2.4,3.9,5.2,7.1,8.4,9.7
		c3.2,2.5,6.9,4.4,10.8,5.6c4,1.2,8.1,1.8,12.3,1.8c3.9,0,7.9-0.5,11.9-1.5c4.1-1,7.9-2.3,11.5-3.9c1.8-0.9,3.7-2.1,5.8-3.5
		c2.1-1.4,4.2-2.9,6.3-4.5c2.1-1.6,4.1-3.5,6.1-5.4c2-2,3.7-4,5.2-6.2c1.5-2.2,2.7-4.4,3.6-6.8c0.9-2.3,1.4-4.7,1.4-7.2
		c0-2.3-0.2-4.3-0.7-6.1c-1.1-2.9-2.9-5.4-5.5-7.3c-2.6-2-5.5-3.6-8.6-4.8c-3-0.9-6.3-1.9-9.9-2.7c-3.6-0.9-7-1.7-10-2.5l-2.8-0.6
		c-5.7-1.2-11.4-2.7-17.1-4.4c-5.7-1.7-11-4-15.9-6.8c-4.9-2.9-9.2-6.6-13-11.2c-3.7-4.6-6.5-10.4-8.4-17.5
		c-0.6-2.7-1.1-5.7-1.6-8.9c-0.5-3.2-0.7-6.3-0.7-9.2c0-5.2,0.5-11,1.5-17.5c1-6.5,2.5-13.4,4.5-20.7c2.3-8.6,5.4-16.9,9.3-24.7
		c3.9-7.8,8.2-14.9,13-21.1c4.8-6.2,10-11.5,15.6-15.6c5.6-4.2,11.4-6.9,17.3-8.2H607c2-0.8,3.8-1.2,5.5-1.5
		c1.7-0.2,3.3-0.4,4.8-0.4c4.6,0,9.1,1,13.6,3.1c4.5,2.1,8.7,4.9,12.6,8.5c4,3.6,7.6,7.9,10.9,12.9c3.3,5,6.2,10.4,8.6,16.1
		c2.4,5.8,4.3,11.9,5.6,18.3c1.3,6.4,2,12.8,2,19.3c0,1.2,0,2.6-0.1,4c0,1.5-0.1,2.8-0.3,4.2c-0.8,6.5-2.4,12.5-5,18
		c-2.5,5.5-5.6,10.4-9.1,14.5c-3.5,4.1-7.4,7.4-11.5,9.7c-4.1,2.3-8.2,3.5-12.1,3.5c-4.2,0-8.1-1.7-11.7-5c-3.5-3.3-6.2-8.3-7.9-15
		c-0.4-1.3-0.5-2.6-0.4-3.8c0.1-1.2,0.5-2.2,1.2-3c0.9-0.8,1.7-0.7,2.5,0.4c0.7,1.1,1.4,2.4,2,4c1.4,4.5,3.2,7.8,5.5,9.9
		c2.2,2.1,4.5,3.2,6.8,3.2c2.4,0,4.8-1,7.1-3c2.3-2,4.4-4.7,6.3-8.2c1.8-3.5,3.3-7.7,4.5-12.5c1.2-4.8,1.7-10.2,1.7-16h0.1
		c-0.2-5.4-0.9-10.8-2.1-16.3c-1.2-5.5-2.7-10.9-4.7-16c-1.9-5.1-4.2-10-6.8-14.5c-2.6-4.6-5.5-8.5-8.5-11.9c-3.1-3.4-6.3-6.1-9.8-8
		c-3.4-2-6.9-3-10.4-3c-5.9-0.1-10.9,1.7-15.2,5.4c-4.3,3.7-7.8,8.5-10.6,14.5c-2.8,6-4.9,12.9-6.3,20.6c-1.4,7.7-2.2,15.5-2.3,23.4
		c-0.1,1.2-0.1,2.4-0.2,3.6c0,1.2-0.1,2.4-0.1,3.6c0,5.5,0.3,10.6,0.9,15.2c0.6,4.6,1.6,8.9,2.9,13c1.5,5,3.5,9.3,6,12.8
		c2.5,3.6,5.4,6.7,8.5,9.3c3.1,2.6,6.5,4.9,10,6.8c3.5,1.9,6.9,3.6,10.2,5.2l2.3,1.1c2.2,1,4.4,2.1,6.5,3.2c2.2,1.1,4.1,2.3,6,3.7
		c4.2,2.7,8.2,6.4,11.8,11c3.6,4.6,6.2,10.2,7.8,16.9c1.1,4.7,1.6,9.4,1.6,14.1c0,6.2-0.9,12.2-2.6,18c-1.8,5.8-4.1,11.2-7.1,16.2
		c-3,5-6.4,9.5-10.4,13.5c-4,4-8.2,7.3-12.7,9.9c-6.9,3.8-14.2,5.6-22.1,5.6c-4.4,0-8.7-0.6-13-1.8c-4.3-1.2-8.4-3-12.3-5.2
		c-3.9-2.3-7.5-5-10.8-8.2c-3.3-3.2-6.1-6.8-8.5-10.8c-2.3-4-4.1-8.3-5.4-12.9c-1.2-4.6-1.7-9.5-1.4-14.7c0.1-1.8,0.5-4.1,1-6.9
		s1.2-5.5,2-8.2c0.8-2.6,1.9-4.9,3.1-6.8C548.8,199.6,550.2,198.7,551.8,198.7z"/>
	<path fill="#fff" stroke="#FFFFFF" stroke-width="2" stroke-miterlimit="10" d="M723.6,138.1c-0.1,0.3-0.5,0.6-1.2,0.8
		c-0.7,0.3-1.1,0.4-1.4,0.4c-0.8,0-1.6-0.6-2.2-1.7c0.3-1,0.5-2,0.6-2.9c0.1-0.9,0.2-1.9,0.4-2.9c0.1-2.3-0.1-4.8-0.4-7.4
		c-0.3-2.6-0.9-4.9-1.7-7c-0.8-2.1-1.9-3.8-3.3-5.1c-1.3-1.4-3-2-4.9-2c-2.5,0-5,1.3-7.5,3.9c-2.5,2.6-5,5.9-7.3,10
		c-2.3,4.1-4.5,8.7-6.6,13.7c-2,5.1-3.9,10.1-5.5,15.1c-1.6,5-2.9,9.7-3.9,14.2c-1,4.4-1.6,8-1.7,10.7c-0.1,1.3-0.1,2.7-0.1,4.2
		c0,1.5,0.2,2.9,0.6,4.2c0.4,1.3,0.9,2.3,1.6,3.1c0.7,0.8,1.7,1.2,3,1.2c2.2,0,4.5-1.5,6.9-4.4s4.8-6.6,7.1-10.8
		c2.3-4.2,4.4-8.7,6.4-13.3c2-4.7,3.6-8.7,5-12.2c0.2-1,0.5-2.3,1-3.7c0.5-1.4,0.6-3,0.5-4.7c-0.1-1.3,0.2-2.2,1.2-2.6
		c0.9-0.4,1.9-0.7,3-0.8c4.2,0.5,7.1,1.8,8.7,3.9c1.7,2.1,2.6,4.6,2.8,7.5c0.2,3,0,6.2-0.7,9.7c-0.7,3.5-1.2,6.7-1.5,9.7
		c-0.1,0.7-0.2,1.7-0.4,3.2c-0.2,1.5-0.3,3.1-0.5,4.9c-0.1,1.8-0.2,3.6-0.3,5.4c-0.1,1.8,0,3.4,0.2,4.6c0.2,1.2,0.5,2,1,2.4
		c0.5,0.4,1.1,0,2.1-1c1.7-2.3,3.5-5.2,5.4-8.8c1.9-3.6,3.8-7.5,5.7-11.6c1.9-4.1,3.7-8.2,5.4-12.4c1.7-4.2,3.3-8,4.7-11.5
		c0.8-2.3,1.6-4.4,2.4-6.4c0.8-2,1.5-3.7,2.1-5c0.5-0.3,1-0.4,1.6-0.4c0.6,0,1.1,0.3,1.5,0.8c0.4,0.5,0.7,1.2,1,1.9l-1.1,3.1
		c-1,2.6-2.1,5.7-3.4,9.2c-1.3,3.5-2.7,7.1-4.2,11c-1.5,3.9-3.1,7.8-4.9,11.7c-1.7,3.9-3.5,7.7-5.2,11.3c-1.7,3.6-3.5,6.8-5.3,9.8
		c-1.8,3-3.5,5.3-5.1,7.1c-1.4,1.6-3.1,2.9-5.1,3.9c-2,1-3.9,1.6-5.8,1.6c-2.5,0-4.5-1.2-5.9-3.6c-1.4-2.4-2.5-5.3-3.1-8.6
		c-0.7-3.3-1-6.8-1.1-10.4c-0.1-3.6,0-6.5,0.3-8.9c0-0.2,0-0.3,0-0.4c0,0,0-0.4,0.1-1.1c-1.9,4.2-4,8.3-6.3,12.3
		c-2.3,4-4.7,7.5-7.3,10.6c-2.6,3.1-5.3,5.6-8.1,7.5c-2.8,1.9-5.7,2.9-8.7,2.9c-2.8,0-5.1-0.7-7-2c-1.9-1.3-3.4-3.1-4.6-5.2
		c-1.1-2.2-1.9-4.7-2.4-7.6c-0.5-2.9-0.7-6-0.7-9.2c0-0.6,0-1.2,0-2c0-0.8,0-1.5,0.1-2.1c0.4-4.7,1.3-9.9,2.7-15.6
		c1.4-5.7,3.1-11.5,5.3-17.4c2.2-5.9,4.6-11.6,7.5-17.1c2.8-5.5,5.9-10.5,9.3-14.7c3.4-4.3,6.9-7.7,10.7-10.3
		c3.7-2.6,7.6-3.9,11.7-3.9c3.1,0,5.9,1,8.3,3c2.4,2,4.4,4.5,6,7.7c1.6,3.1,2.8,6.7,3.6,10.6c0.7,3.9,1,7.8,0.8,11.8
		c-0.2,2.7-0.6,5.3-1.3,7.6L723.6,138.1z"/>
	<path fill="#fff" stroke="#FFFFFF" stroke-width="2" stroke-miterlimit="10" d="M765.1,132.1c-0.2,1-0.4,2-0.6,3
		c-0.2,0.9-0.3,1.8-0.5,2.7c0.8-1.6,1.7-3.3,2.5-5.1c0.8-1.8,1.7-3.6,2.7-5.5c1.9-3.9,3.9-7.9,5.9-11.9c2-4,4.2-7.6,6.5-10.9
		c2.3-3.2,4.6-5.9,7.2-7.9c2.5-2,5.2-3,8-3c2,0,3.6,0.4,4.9,1.3c1.3,0.9,2.3,2.1,3,3.7c0.7,1.6,1.2,3.4,1.4,5.6
		c0.2,2.2,0.2,4.5,0.1,7c-0.4,5.3-1.3,11.2-2.8,17.7c-1.5,6.5-3.1,13.1-5,19.7c-1.6,6-3,11.9-4.3,17.8c-1.3,5.8-2.2,10.8-2.5,14.8
		c0,0.9,0,2,0.1,3.3c0,1.3,0.1,2.5,0.3,3.6c0.1,1.1,0.4,2.1,0.7,2.8c0.4,0.8,0.8,1.1,1.4,1.1c1,0,2.3-1.1,3.9-3.5
		c1.6-2.3,3.4-5.2,5.2-8.8c1.9-3.6,3.8-7.5,5.7-11.8c1.9-4.3,3.7-8.5,5.4-12.5c1.7-4,3.2-7.7,4.5-10.9c1.3-3.2,2.2-5.5,2.8-6.9
		c0-0.3,0.1-0.6,0.3-0.8l0.4-1.1c0.4-0.8,0.7-1.6,1-2.1c0.3-0.6,0.8-0.8,1.6-0.8c0.7,0,1.3,0.3,1.6,0.8c0.4,0.5,0.7,1.2,1,1.9
		c-0.5,1.1-1,2.5-1.6,4.1c-0.6,1.6-1.2,3.2-1.7,4.8c-1.4,3.7-3,7.7-4.6,12c-1.7,4.4-3.4,8.7-5.3,13.1c-1.9,4.4-3.8,8.6-5.9,12.7
		c-2,4.1-4.2,7.7-6.3,10.9c-2.2,3.2-4.3,5.7-6.5,7.6c-2.2,1.9-4.4,2.8-6.6,2.8c-2.5,0-4.5-0.5-6.2-1.5c-1.7-1-3-2.3-4-4
		c-1-1.7-1.7-3.7-2.2-6.1c-0.5-2.3-0.7-4.9-0.7-7.8c0-0.6,0-1.2,0-2c0-0.8,0-1.5,0.1-2.1c0.3-3.7,0.8-7.6,1.6-11.7
		c0.8-4.1,1.7-8.4,2.7-12.7c1-4.3,2.1-8.6,3.2-12.8c1.2-4.2,2.3-8.1,3.3-11.8c1.4-5.1,2.7-9.6,3.8-13.5c1.1-3.9,1.7-6.9,1.9-8.7
		c0.1-1.7-0.2-2.5-1-2.5c-1.3,0-2.7,0.9-4.4,2.7c-1.7,1.8-3.4,4.2-5.3,7.2c-1.9,3-3.8,6.3-5.7,9.9c-1.9,3.7-3.7,7.4-5.5,11.1
		c-1.8,3.7-3.4,7.2-4.8,10.5c-1.4,3.3-2.7,6-3.7,8.2v-0.1l-1.7,3.9h0.1c-1.2,3.9-2.2,8.2-3.1,13.2s-1.4,9.6-1.7,14
		c-0.1,0.8-0.1,1.5-0.1,2.2c0,0.7,0,1.4,0,2.2c0,2.3,0.1,4.2,0.3,5.8c0.2,1.6,0.4,2.9,0.6,3.9c0.2,0.8,0.3,1.5,0.3,2
		c0,1.3-0.8,2-2.3,2c-2.5,0-4.7-0.7-6.4-2c-1.7-1.4-3-3.1-4-5.4c-1-2.2-1.6-4.7-2-7.5c-0.4-2.8-0.6-5.7-0.6-8.6c0-0.9,0-1.9,0.1-2.8
		c0-0.9,0.1-1.9,0.2-3c0.2-3.1,0.5-6.3,0.9-9.7c0.4-3.4,0.8-6.8,1.4-10.2c0.5-3.4,1.1-6.8,1.7-10.1c0.6-3.3,1.2-6.4,1.8-9.4
		c1-5.1,1.9-9.8,2.6-14.2c0.7-4.4,1.2-8.2,1.4-11.4c0.1-1.5,0.1-2.8-0.1-3.9c-0.1-1.1-0.2-2.2-0.4-3.1c-0.1-0.5-0.1-0.9-0.2-1.3
		c0-0.4-0.1-0.8-0.1-1.1c0.1-1.3,0.5-2.2,1.3-2.7c0.8-0.5,1.7-0.7,2.7-0.7c2.7,0,4.8,0.6,6.5,1.8c1.6,1.2,2.9,2.7,3.8,4.6
		c0.9,1.9,1.4,4,1.7,6.3c0.2,2.3,0.3,4.6,0.2,7c-0.1,2.5-0.4,5.1-0.8,7.7C766.1,127.5,765.6,129.9,765.1,132.1z"/>
	<path fill="#fff" stroke="#FFFFFF" stroke-width="2" stroke-miterlimit="10" d="M849.5,64.9c-0.1,2.4-0.4,5.1-0.8,7.9
		c-0.4,2.8-0.8,5.8-1.3,9c3.1,0,6.1,0.2,9,0.7c2.9,0.5,5.5,1.4,7.9,2.7c2.4,1.3,4.6,3.1,6.5,5.4c1.9,2.3,3.5,5.2,4.7,8.8h-0.1
		c0.3,0.8,0.2,1.6-0.3,2.4c-0.5,0.8-1.2,1-2,0.6c-3-3.9-6.6-6.6-10.9-8c-4.3-1.4-8.9-2-13.8-2h-2.6c-0.7,4.2-1.5,8.5-2.3,12.7
		c-0.8,4.2-1.6,8.6-2.5,13l-2,10.7l-0.3,1.8c-0.5,2.4-1.1,5.8-1.9,9.9c-0.8,4.2-1.5,8.7-2.3,13.5c-0.7,4.8-1.4,9.7-1.9,14.6
		c-0.5,4.9-0.8,9.3-0.8,13.2c0,2.7,0.2,5.1,0.5,7.1c0.3,2,0.9,3.4,1.7,4.2c0.6,0.7,1.7,0.7,3.1,0.1c1.4-0.6,3.1-1.8,5.2-3.8
		c2.2-2.3,4.3-5.3,6.4-8.9c2.1-3.6,4.1-7.5,5.9-11.6c1.9-4.1,3.6-8.3,5.2-12.5c1.6-4.2,3-8,4.2-11.3h-0.1c1-2.6,1.9-5,2.7-7
		c0.8-2,1.6-3.7,2.4-5c0.1-0.1,0.5-0.1,1.2-0.1c1.1,0,1.9,0.9,2.4,2.7l-3.8,10.6h0.1c-2.3,6.3-4.7,12.9-7.4,19.9
		c-2.7,7-5.6,13.3-8.6,19.2c-3.1,5.8-6.3,10.6-9.8,14.4c-3.5,3.8-7.1,5.7-10.9,5.7c-6.3,0-10.7-2.1-13.1-6.2
		c-2.5-4.1-3.7-9.9-3.7-17.3c0-1,0-2.1,0.1-3.1c0-1,0.1-2.1,0.2-3.2c0.2-3.2,0.7-7.6,1.5-13.1c0.8-5.5,1.7-11.6,2.8-18.3
		c1.1-6.6,2.2-13.6,3.5-20.9c1.3-7.3,2.5-14.3,3.7-21.1l1.5-8c-2.4,0.3-4.7,0.5-6.9,0.7c-2.2,0.2-4.3,0.3-6.4,0.3
		c-4.3,0-8.1-0.7-11.3-2.1c-3.2-1.4-5.5-4-6.9-7.9c-0.1-0.5-0.2-1-0.3-1.6c-0.1-0.6,0-1.1,0.1-1.6c0.1-0.4,0.4-0.7,0.8-0.8
		c0.4-0.1,0.9,0.1,1.5,0.6l-0.1-0.1c2.1,1.2,4.4,2.1,6.9,2.5c2.5,0.5,5.1,0.7,7.8,0.7c2.5,0,5.3-0.2,8.2-0.5
		c2.9-0.3,5.7-0.7,8.5-1.1c1-5.9,1.8-11.1,2.5-15.6c0.7-4.5,1.1-7.7,1.3-9.7c0.1-1.6,0.1-2.9-0.1-4c-0.1-1.1-0.2-2.1-0.4-3
		c-0.1-0.5-0.1-0.9-0.2-1.3c0-0.4-0.1-0.8-0.1-1.2c0.1-1.3,0.6-2.2,1.3-2.6c0.7-0.4,1.6-0.6,2.6-0.6c2.8,0,5,0.6,6.6,1.7
		c1.7,1.1,2.9,2.6,3.8,4.4c0.9,1.8,1.4,3.9,1.6,6.3C849.6,60.1,849.6,62.5,849.5,64.9z"/>
	<path fill="#fff" stroke="#FFFFFF" stroke-width="2" stroke-miterlimit="10" d="M884.6,203.5c-4,0-7.4-1.4-10.1-4.3
		c-2.7-2.9-4.9-6.5-6.5-10.9c-1.7-4.4-2.8-9.3-3.5-14.7c-0.7-5.4-1-10.6-1-15.6c0-1.4,0-2.8,0-4.2c0-1.4,0.1-2.6,0.2-3.7
		c0.3-4.5,0.7-8.7,1.2-12.5c0.5-3.9,1.1-7.1,1.9-9.9c1.4-2.3,3.1-3.9,4.9-4.9c1.9-1,3.8-1.6,5.8-1.6c1.1,0,2.3,0.2,3.4,0.6
		c1.2,0.4,2.2,0.9,3.2,1.6c0.4-5,1-9.9,1.9-14.9c0.9-4.9,2.2-9.4,3.9-13.3c1.7-3.9,4-7.1,6.8-9.6c2.8-2.4,6.3-3.7,10.5-3.7
		c3.5,0,6.4,1,8.8,2.9c2.4,1.9,4.5,4.5,6,7.8c1.6,3.3,2.8,7.2,3.5,11.7c0.7,4.5,1.1,9.4,1.1,14.5c0,2.8-0.1,5.5-0.3,8v-0.1
		c-0.6,7.3-1.7,14.8-3.5,22.5c-1.8,7.7-4,14.9-6.7,21.7c2.8-0.8,5.2-2.1,7.3-4.2c2.1-2,4.1-4.5,5.8-7.3c1.8-2.9,3.4-6,4.8-9.4
		c1.4-3.4,2.8-6.9,4.2-10.4l2.3-5.6c0.4-0.2,0.7-0.4,1-0.6c0.3-0.2,0.6-0.3,0.8-0.3c0.4,0,0.7,0.2,1.1,0.6c0.4,0.4,0.6,1.1,0.8,2.3
		c-1.2,3.8-2.8,8.1-4.7,12.9c-1.9,4.8-4.2,9.4-6.8,13.7c-2.6,4.3-5.6,8-9,11.1c-3.4,3.1-7.1,4.8-11.2,5.1c-1.8,3.7-3.8,7-5.9,10
		c-2.1,3-4.3,5.6-6.7,7.8c-2.4,2.2-4.9,3.9-7.5,5.1C890.1,202.8,887.4,203.5,884.6,203.5z M905.6,178.2c-3.5-1.4-6.6-3.3-9.1-5.6
		c-2.5-2.3-4.7-5-6.4-8.1s-3-6.5-4-10.3c-1-3.8-1.6-7.8-2-12.1c-0.2,1.5-0.4,3.1-0.5,4.7c-0.1,1.6-0.2,3.2-0.4,4.8
		c-0.2,3-0.3,5.9-0.3,8.7c0,3.5,0.2,6.8,0.5,10.1c0.3,3.2,0.9,6.1,1.6,8.6c0.8,2.5,1.8,4.5,3.1,6c1.3,1.5,2.8,2.3,4.7,2.3
		c2.4,0,4.6-0.8,6.7-2.3C901.6,183.5,903.6,181.2,905.6,178.2z M895.9,131.2c0,3.9,0.2,8.1,0.5,12.4c0.4,4.3,1,8.3,2.1,12
		c1,3.7,2.4,6.9,4.2,9.6c1.8,2.7,4.2,4.4,7.2,5.1c1.3-2.9,2.6-6.1,3.8-9.7c1.2-3.5,2.2-7.1,3.1-10.9c0.9-3.7,1.7-7.5,2.3-11.4
		c0.6-3.9,1-7.7,1.2-11.3c0.1-1.3,0.2-2.6,0.2-3.7c0-1.2,0-2.4,0-3.6c0-4-0.3-7.8-0.8-11.4c-0.5-3.6-1.3-6.7-2.4-9.3
		c-1.1-2.6-2.5-4.7-4.2-6.3c-1.7-1.6-3.8-2.3-6.1-2.3c-1.6,0-3.1,0.8-4.3,2.3c-1.2,1.6-2.3,3.6-3.1,6.3c-0.8,2.6-1.5,5.7-2,9.2
		c-0.5,3.5-0.9,7.1-1.2,10.9c-0.1,1.7-0.2,3.6-0.3,5.6C895.9,126.7,895.9,128.9,895.9,131.2z"/>
	<path fill="#fff" stroke="#FFFFFF" stroke-width="2" stroke-miterlimit="10" d="M939.5,77c1.3-1.5,2.8-2.6,4.5-3.4
		c1.7-0.8,3.5-1.1,5.2-1.1c1.2,0,2.4,0.2,3.5,0.6c1.1,0.4,2.1,1,3,1.8s1.5,2,2.1,3.3c0.5,1.4,0.8,3,0.8,4.9c0,2.9-0.5,6.2-1.5,10
		c-1,3.8-2.2,7.8-3.5,12c-0.6,2.2-1.3,4.3-2,6.5c-0.7,2.2-1.3,4.4-1.9,6.6c2.8,5.5,5.4,10.9,7.8,16.5c2.5,5.5,4.7,10.9,6.6,16.1
		c1.9,5.2,3.4,10,4.6,14.5c1.1,4.5,1.7,8.4,1.8,11.7c1.6-3.2,3.2-6.5,4.8-10c1.6-3.5,3.1-6.9,4.5-10.4c1.4-3.4,2.8-6.7,4-9.8
		c1.2-3.1,2.2-5.8,3.1-8.2c0-0.1,0.1-0.2,0.2-0.4c0.1-0.1,0.1-0.2,0.1-0.3l0.8-2.3h-0.1c0.4-0.9,0.7-1.7,1-2.3
		c0.3-0.6,0.9-0.8,1.6-0.8c1.3,0,2.2,0.9,2.8,2.8l-0.6,1.7l-0.3,0.4c-1.1,2.7-2.3,5.9-3.7,9.6c-1.4,3.7-2.9,7.5-4.5,11.6
		c-1.6,4-3.4,8.1-5.2,12.3c-1.8,4.1-3.7,8.1-5.6,11.8c-1.9,3.8-3.9,7.2-5.8,10.2c-2,3.1-3.9,5.5-5.7,7.4c-1.7,1.6-3.6,3-5.7,4.2
		c-2.1,1.2-4.2,2.3-6.4,3.1c-2.2,0.8-4.4,1.5-6.6,2c-2.2,0.5-4.3,0.7-6.3,0.7c-2.3,0-4.5-0.3-6.5-0.8s-3.7-1.4-5.2-2.6
		c-1.4-1.2-2.6-2.6-3.3-4.4c-0.8-1.8-1.1-3.9-1-6.3c0.1-1.3,0.7-2.7,1.5-4c0.9-1.4,1.9-2,3-2c0.8,0,1.3,0.5,1.5,1.5
		c0.1,1,0.2,2.1,0.1,3.2c0,1.5,0.3,2.7,0.8,3.7c0.5,0.9,1.2,1.6,2.1,2.1c0.9,0.5,1.9,0.8,2.9,0.9c1.1,0.1,2.1,0.2,3.2,0.1
		c5.7-0.3,9.8-2.7,12.3-7.2c2.5-4.5,3.9-10.7,4.1-18.5c0-2.5-0.3-5.4-0.8-8.5c-0.5-3.1-1.2-6.4-2.1-9.8s-1.8-6.7-3-10
		c-1.1-3.3-2.4-6.3-3.7-9l-4.7,14l-3.8-1.8l5.6-17.6c-2.5-4.2-4.5-9.2-6-14.8c-1.6-5.6-2.3-11.4-2.3-17.2c0-4.5,0.6-8.9,1.7-13.1
		C934.5,83.8,936.6,80.1,939.5,77z M947.5,109.3c0.6-2.1,1.3-4.3,2.1-6.8c0.7-2.5,1.4-4.9,2-7.1c0.6-2.3,1-4.3,1.3-6.1
		c0.3-1.8,0.3-3.1,0-3.9h0.1c-0.4-1.1-0.9-1.7-1.4-1.8c-0.6-0.1-1.3,0.4-2.1,1.6c-0.7,1.2-1.4,2.8-2.1,4.8c-0.6,2-1.2,4.3-1.6,6.8
		c-0.4,2.5-0.6,5.1-0.6,7.6c0,3,0.4,5.8,1.3,8.3L947.5,109.3z"/>
</g>
</svg>
