<svg version="1.2" baseProfile="tiny" id="Layer_1" xmlns="http://www.w3.org/2000/svg" xmlns:xlink="http://www.w3.org/1999/xlink"
	 x="0px" y="0px" viewBox="0 0 500 90" overflow="scroll" xml:space="preserve">

  <style>
		path{
			stroke: #fff;
			fill: #fff;
			stroke-dasharray: 1000;
			opacity: 10;
			animation: animate 10s infinite cubic-bezier(.17,.67,.83,.67) ;
		}
		@keyframes animate{
			0%{
				opacity: 1;
				fill: none;
				stroke-dashoffset: 760;
			}
			30%{
				opacity: 10;
				fill: none;
				stroke-dashoffset: 1020;

			}
			90%{
				fill: none;

			}
			100%{
				opacity: 10;
				fill: #fff;
				stroke-dashoffset: 720;
			}
		}

	 </style>



<path d="M48.3,6.5v52.2h-5.2V13.5h-0.9l-31,45.2H4.7L41.2,6.5H48.3z"/>
<path d="M255.8,84.7c-2.2,0-4.3-0.4-6.2-1.1c-1.9-0.7-3.5-1.7-4.9-3c-1.4-1.3-2.5-2.9-3.2-4.7c-0.8-1.9-1.2-3.9-1.3-6.2h5.1
	c0.1,3.2,1.1,5.7,3,7.6c1.8,1.9,4.4,2.9,7.6,2.9c1.4,0,2.7-0.3,3.9-0.8c1.2-0.5,2.3-1.3,3.2-2.2c0.9-0.9,1.7-2,2.2-3.2
	c0.5-1.2,0.8-2.5,0.8-3.9c0-1.7-0.3-3.2-1-4.3c-0.7-1.2-1.5-2.1-2.6-3c-1.1-0.8-2.3-1.5-3.6-2.1c-1.3-0.6-2.7-1-4-1.5
	c-1.8-0.5-3.5-1.1-5.1-1.7c-1.6-0.6-3-1.4-4.2-2.4c-1.2-1-2.2-2.2-2.9-3.7c-0.7-1.5-1-3.3-1-5.5c0-2,0.4-3.8,1.1-5.5
	c0.8-1.6,1.8-3.1,3.1-4.3c1.3-1.2,2.8-2.1,4.5-2.8c1.7-0.7,3.6-1,5.5-1c2,0,3.8,0.3,5.5,1c1.7,0.7,3.2,1.7,4.4,2.9
	c1.3,1.2,2.2,2.7,3,4.4c0.7,1.7,1.1,3.5,1.1,5.5h-4.9c0-1.3-0.2-2.4-0.7-3.6c-0.5-1.1-1.1-2.1-1.9-2.9c-0.8-0.8-1.8-1.5-2.9-2
	c-1.1-0.5-2.3-0.7-3.5-0.7c-1.3,0-2.4,0.2-3.6,0.7c-1.1,0.4-2.1,1-2.9,1.8c-0.8,0.8-1.5,1.7-2,2.8c-0.5,1.1-0.7,2.3-0.7,3.5
	c0,1.7,0.4,3.1,1.1,4.1c0.8,1,1.7,1.9,2.9,2.6c1.2,0.7,2.5,1.2,3.9,1.6c1.4,0.4,2.8,0.8,4.1,1.2c1.8,0.6,3.5,1.3,4.9,2.1
	c1.5,0.9,2.8,1.9,3.9,3.1c1.1,1.2,1.9,2.6,2.5,4.1c0.6,1.6,0.9,3.3,0.9,5.3c0,2.1-0.4,4-1.2,5.9c-0.8,1.8-1.9,3.4-3.3,4.7
	c-1.4,1.3-3,2.4-4.8,3.1S257.9,84.7,255.8,84.7z"/>
<path d="M315.4,32.5v52.2h-5.2V39.5h-0.9l-31,45.2h-6.4l36.4-52.2H315.4z"/>
<path d="M480,84.4c-2.2,0-4.2-0.4-6.1-1.1c-1.9-0.7-3.5-1.7-4.8-3c-1.4-1.3-2.4-2.8-3.2-4.7c-0.8-1.8-1.2-3.9-1.2-6.1h5
	c0.1,3.1,1.1,5.6,2.9,7.5c1.8,1.9,4.3,2.9,7.5,2.9c1.4,0,2.7-0.3,3.9-0.8c1.2-0.5,2.3-1.2,3.2-2.1c0.9-0.9,1.6-1.9,2.2-3.2
	c0.5-1.2,0.8-2.5,0.8-3.9c0-1.7-0.3-3.1-1-4.3c-0.6-1.1-1.5-2.1-2.5-2.9c-1.1-0.8-2.2-1.5-3.6-2c-1.3-0.6-2.7-1-4-1.4
	c-1.8-0.5-3.5-1.1-5-1.7c-1.6-0.6-2.9-1.4-4.1-2.4c-1.2-1-2.1-2.2-2.8-3.6c-0.7-1.4-1-3.2-1-5.4c0-2,0.4-3.8,1.1-5.4
	c0.8-1.6,1.8-3,3-4.2c1.3-1.2,2.7-2.1,4.4-2.8c1.7-0.7,3.5-1,5.4-1c1.9,0,3.7,0.3,5.4,1c1.7,0.7,3.1,1.6,4.4,2.9
	c1.2,1.2,2.2,2.7,2.9,4.3c0.7,1.7,1.1,3.5,1.1,5.4h-4.9c0-1.2-0.2-2.4-0.7-3.5c-0.5-1.1-1.1-2.1-1.9-2.9c-0.8-0.8-1.7-1.5-2.8-2
	c-1.1-0.5-2.2-0.7-3.5-0.7c-1.2,0-2.4,0.2-3.5,0.7c-1.1,0.4-2.1,1-2.9,1.8s-1.5,1.7-2,2.7c-0.5,1.1-0.7,2.2-0.7,3.5
	c0,1.7,0.4,3.1,1.1,4.1c0.8,1,1.7,1.9,2.9,2.5c1.2,0.7,2.5,1.2,3.9,1.6c1.4,0.4,2.8,0.8,4.1,1.2c1.8,0.6,3.4,1.2,4.9,2.1
	c1.5,0.8,2.7,1.9,3.8,3c1.1,1.2,1.9,2.5,2.5,4.1c0.6,1.5,0.9,3.3,0.9,5.2c0,2.1-0.4,4-1.2,5.8c-0.8,1.8-1.9,3.3-3.2,4.6
	c-1.4,1.3-2.9,2.3-4.7,3.1S482.1,84.4,480,84.4z"/>
<path d="M80.3,6.3h5.2c0.2,0,0.3,0.1,0.3,0.3v51.8c0,0.2-0.1,0.3-0.3,0.3h-6.3C78.4,58,71.8,49,59.3,31.7c-4.7-6.1-7-9.5-7-10
	c-0.1-1.6-0.1-2.9-0.1-4.1v-4.3h0.1C70.6,38,79.7,50.4,79.7,50.6H80v-44C80.1,6.4,80.2,6.3,80.3,6.3z"/>
<path d="M97.1,6.3c7.6,0,12.8,1.1,15.7,3.3c8.2,5.2,12.3,12.8,12.3,23c0,10.9-4.8,18.9-14.5,24.1c-2.6,1.3-6.9,2-12.7,2h-7.1
	c-0.2,0-0.3-0.1-0.3-0.3v-5.3h0.1c2.3,0,5,0,8,0.1c9.3,0,15.6-3.8,18.9-11.5c1.2-3,1.9-6.1,1.9-9.4c0-8.5-3.6-14.9-10.9-19
	c-2.6-1.1-5.7-1.7-9.3-1.7h-3.5c-1.1,0-2.8,0-5,0.1l-0.1-0.3V6.8c0-0.2,0.1-0.3,0.3-0.3C92.2,6.5,94.3,6.4,97.1,6.3z"/>
<path d="M135.2,6.3c9.6,0,15.8,3.2,18.4,9.7c0.8,2.4,1.2,4.6,1.2,6.7c0,7.2-3.5,12.1-10.5,14.5c0,0.1-0.7,0.4-2,1l12.1,20.3v0.3
	h-6.4c-0.4-0.3-3.7-5.9-9.9-17l-4.9-8.5l0.3-0.1h0.6c10,0,15-3.5,15-10.5c0-4.3-2.1-7.6-6.4-9.8c-2.8-0.8-6-1.2-9.7-1.2
	c-4.5,0.1-7.5,0.1-9,0.1l-0.1-0.3V6.9c0-0.2,0.1-0.3,0.3-0.3C124.7,6.6,128.3,6.5,135.2,6.3z"/>
<path d="M156.7,6.4h5.2c0.2,0,0.3,0.2,0.3,0.5v51.4c0,0.3-0.1,0.5-0.3,0.5h-5.2c-0.2,0-0.3-0.2-0.3-0.5V6.9
	C156.4,6.6,156.5,6.4,156.7,6.4z"/>
<path d="M191.7,6.3c8.4,0,15.1,3.3,20.2,9.9c0.9,1.3,1.4,2.3,1.5,3c-3,1.3-4.6,1.9-4.8,1.9h-0.1c-3.3-6.2-8.6-9.4-16-9.4
	c-9.4,0-15.7,4.5-18.9,13.4c-0.7,2.4-1,4.6-1,6.4v1.7c0,6.1,2.1,11.3,6.3,15.5c2.9,2.3,6.3,3.8,10.2,4.5l0.1,0.3v4.9
	c0,0.2-0.1,0.3-0.3,0.3c-4.1-0.5-7.5-1.5-10.1-3.1c-4.2-2.9-7-5.9-8.4-9c-2.4-4.4-3.6-9.1-3.6-14.1c0-8.8,3.3-16,10-21.5
	C181.4,7.9,186.3,6.3,191.7,6.3z"/>
<path d="M231.7,6.3h6.4v0.1l-21.8,25.2v0.1l24,26.8v0.1h-6.7l-19.1-21.4c-0.7-0.8-1-1.9-1-3.3c0-0.6,0.1-2.8,0.3-6.7
	C225.6,13.3,231.6,6.3,231.7,6.3z"/>
<path d="M347.1,32.3h5.2c0.2,0,0.3,0.1,0.3,0.3v51.8c0,0.2-0.1,0.3-0.3,0.3H346c-0.8-0.8-7.4-9.8-19.9-27.1c-4.7-6.1-7-9.5-7-10
	c-0.1-1.6-0.1-2.9-0.1-4.1v-4.3h0.1c18.3,24.7,27.5,37.2,27.5,37.4h0.3v-44C346.9,32.4,347,32.3,347.1,32.3z"/>
<path d="M357.6,32.4h23.5c0.2,0,0.3,0.1,0.3,0.3v51.8c0,0.2-0.1,0.3-0.3,0.3h-5.2c-0.2,0-0.3-0.1-0.3-0.3V37.9h-18
	c-0.2,0-0.3-0.1-0.3-0.3v-5C357.3,32.5,357.4,32.4,357.6,32.4z"/>
<path d="M410.1,32.7v5c0,0.2-0.1,0.3-0.3,0.3h-18v46.5c0,0.2-0.1,0.3-0.3,0.3h-5.2c-0.2,0-0.3-0.1-0.3-0.3V32.7
	c0-0.2,0.1-0.3,0.3-0.3h23.5C410,32.4,410.1,32.5,410.1,32.7z"/>
<path d="M411.6,46.7h0.3c2.5,2.9,3.8,4.4,3.8,4.8c-0.7,2.7-1,5.1-1,7c0,9,3.9,15.5,11.7,19.3c2.8,1,5.6,1.5,8.3,1.5h2.7l1.4-0.1
	c1.3,1.5,2.6,3,3.8,4.6v0.1c-2.6,0.6-4.8,0.8-6.7,0.8h-1.7c-8.2,0-15-3.5-20.3-10.6c-3.1-4.5-4.6-9.4-4.6-14.7v-1.7
	C409.3,54.3,410.1,50.6,411.6,46.7z M418.8,37.1c15,18,26.6,32,34.6,41.8V79l-0.7,0.4c-20.4-24.5-31.9-38.4-34.6-41.9v-0.1
	L418.8,37.1z M435.4,32.3c9.7,0,17.2,4.2,22.4,12.7c2.2,4,3.4,8.3,3.4,12.7v1.1c0,3.8-0.8,7.6-2.4,11.5h-0.3l-3.9-4.6
	c0.7-2.6,1-4.9,1-7v-1.4c0-7.2-3.5-13-10.4-17.3c-3.1-1.5-6.4-2.2-9.8-2.2c-2.2,0.1-3.5,0.2-3.8,0.3l-3.8-4.8
	C430.1,32.7,432.6,32.3,435.4,32.3z"/>
<g>
</g>
<g>
</g>
<g>
</g>
<g>
</g>
<g>
</g>
<g>
</g>
<g>
</g>
<g>
</g>
<g>
</g>
<g>
</g>
<g>
</g>
<g>
</g>
<g>
</g>
<g>
</g>
<g>
</g>
</svg>
